<?xml version="1.0" encoding="UTF-8"?>
<svg id="b" data-name="Layer 2" xmlns="http://www.w3.org/2000/svg" viewBox="0 0 1394.542 1494.81">
  <g id="c" data-name="Layer 1">
    <g>
      <path d="M533.54.21c-1.061,1.737,4.37,19.9,9.598,32.1,19.886,46.4,53.433,85.408,88.357,102.74,16.4,8.139,31.576,12.66,47.5,14.151,3.6.337,6.478,1.055,6.45,1.609-.027.548-3.573,8-7.85,16.5-4.277,8.5-9.832,20.242-12.3,26-2.486,5.8-5.574,12.872-6.9,15.8-1.313,2.9-2.4,5.481-2.4,5.7,0,2.387-19.198,40.3-24.711,48.8-10.831,16.7-31.696,39.661-43.789,48.188-13.9,9.801-22.479,15.512-23.3,15.512-.474,0-1.705.9-2.6,1.9-.922,1.03-3.05,2.152-4.65,2.45-1.8.335-2.95,1.193-2.95,2.2,0,1.32.55,1.52,2.75,1,1.528-.361,4.75-1.046,7.25-1.54,11.5-2.275,15.033-3.061,22-4.896,20.811-5.482,50.9-16.109,75.5-26.665,38.4-16.479,71.281-34.546,89.5-49.179,8.296-6.662,21.713-20.47,28.054-28.87,7.909-10.476,17.489-28.6,20.827-39.4,1.267-4.1,2.681-8.407,3.118-9.5.44-1.1,1.115-3.8,1.5-6,.392-2.24,1.096-6.2,1.6-9,.491-2.727,1.149-7.5,1.448-10.5,1.106-11.1,3.719-27.01,5.667-34.5,7.517-28.9,30.789-56.927,58.485-70.433,5.9-2.877,11.594-5.675,12.55-6.167,1-.514,2.65-.9,3.85-.9s1.92-.557,1.679-1.3c-.422-1.306-6.579-3.174-16.279-4.94-7.5-1.365-41.153-1.409-48.5-.062-14.5,2.657-39.115,12.665-52.5,21.346-3.4,2.205-6.742,3.956-7.55,3.956-.787,0-3.05-1.08-4.95-2.363-4.024-2.716-26.4-13.67-33-16.155-8.1-3.049-16.38-5.683-20.7-6.585-2.329-.486-6.5-1.364-9.1-1.916-10.964-2.326-36.1-3.926-62.7-3.992-26.5-.066-40.944-1.117-53.5-3.895-2.5-.553-5.833-1.284-7.5-1.645-1.7-.368-3.975-1.04-5.25-1.55-1.2-.48-3.277-1.291-4.45-1.737-5.1-1.94-18.377-8.801-20.8-10.75-5.5-4.421-8.908-6.409-9.456-5.514h0ZM825.996,54.21c0,.491-1.25,2.036-2.75,3.4-1.507,1.37-8.85,7.916-16.25,14.486-17.3,15.36-34.098,33.058-41.016,43.214-1.294,1.9-2.613,3.708-2.884,3.954-4.894,4.449-22.319,31.646-30.142,47.046-4.013,7.9-6.894,12.214-6.944,10.4-.108-3.892,20.115-48.9,25.611-57,1.289-1.9,2.375-3.729,2.375-4,0-1.827,15.696-22,22.409-28.8,12.515-12.678,20.091-18.3,34.091-25.3,4.4-2.2,9.575-4.945,11.5-6.1,4.1-2.46,4-2.427,4-1.3h0ZM614.996,73.433c3.704,1.082,9.2,2.333,17.5,3.984,2.778.552,9,1.327,14,1.744s9.533,1.079,10.2,1.49c1.503.927,41.1.988,46,.071,3.4-.636,3.663-.548,2.5.839-.722.861-2.5,1.794-4,2.1-1.5.306-4.7,1.048-7.2,1.671-16.2,4.036-30.418,5.406-41,3.949-4.7-.647-10.288-1.393-12.5-1.67-2.2-.275-4.45-.815-5-1.2-.556-.389-3-1.322-5.5-2.1-2.5-.778-5.833-2.133-7.5-3.05-1.645-.905-5.8-3.136-9.2-4.941-6.1-3.238-8.462-5.943-4-4.581,1.194.365,3.8,1.139,5.7,1.694h0ZM721.996,102.31c0,.496-3.9,2.774-8.7,5.08-14.9,7.159-18.782,8.354-32.8,10.101-10.6,1.32-14.754,1.301-22.5-.103-3.6-.653-7.95-1.423-9.75-1.728s-3.495-.952-3.8-1.45c-.314-.514-1.15-.9-1.95-.9-2.3,0-15.5-6.132-15.5-7.2,0-.571,1.2-.706,2.8-.314,18.587,4.552,44.7,5.309,63.7,1.848,13.8-2.514,16.871-3.182,21.5-4.675,5.5-1.774,7-1.915,7-.658h0Z"/>
      <path d="M278.596,28.56c-.222.695-.711,3.25-1.1,5.75-.388,2.492-1.132,7.4-1.668,11-1.56,10.468-2.123,49.3-.893,61.5,1.112,11.024,1.655,14.2,4.596,26.9,10.167,43.9,40.034,80.7,83.165,102.471,3.4,1.716,6.426,3.13,6.7,3.13.46,0,1.201-15.4,2.165-45,.645-19.8-1.07-35.77-5.531-51.5-.624-2.2-1.382-5.013-1.684-6.25-.293-1.2-.97-2.507-1.45-2.8-.48-.293-.9-1.25-.9-2.05,0-1.83-9.025-20.2-11.939-24.3-1.137-1.6-2.061-3.214-2.061-3.6,0-1.111-9.653-14-16.85-22.5-3.488-4.12-15.77-17.1-27.25-28.8-11.48-11.7-20.9-21.615-20.9-22s-.9-1.262-2-1.95c-1.6-1-2.08-1-2.4,0h0ZM287.521,50.01c.972,2.082,4.216,9,7.175,15.3,2.958,6.3,5.762,12.404,6.2,13.5.448,1.12,1.276,3.1,1.883,4.5,2.027,4.682,4.984,14.3,8.453,27.5,1.945,7.4,4.611,16.259,6.319,21,1.329,3.688-1.296.2-8.279-11-7.295-11.7-15.275-27.321-15.275-29.9,0-.8-.42-1.757-.9-2.05-.491-.3-1.195-1.8-1.55-3.3-.358-1.512-1.118-4.55-1.69-6.75-1.087-4.181-2.244-10.7-3.815-21.5-.524-3.6-1.253-7.526-1.634-8.8-1.112-3.713,1.199-2.6,3.114,1.5h0Z"/>
      <path d="M1143.996,28.461c-20.9,4.386-36.525,12.117-54.5,26.967-3.859,3.188-16.2,13.479-27.5,22.932s-27.232,22.58-35.5,29.25c-8.3,6.695-19.02,15.495-24,19.7-4.935,4.168-16,13.222-24.5,20.05s-20.987,16.966-27.65,22.45c-6.703,5.517-20.6,16.59-31,24.7s-22.257,17.513-26.45,20.974c-6.967,5.752-16.1,12.902-33.3,26.07-13.5,10.335-34.279,25.365-36.9,26.69-1.5.759-2.7,1.743-2.7,2.216,0,.476-.55.85-1.25.85-.692,0-4.15,2.632-7.75,5.9-3.624,3.289-12.85,9.595-20.85,14.25-7.9,4.597-16.013,9.763-18.05,11.493-7.603,6.458-11.346,19.457-9.116,31.657.731,4,1.669,7.6,2.11,8.1,1.834,2.079.606,4.04-7.294,11.645-8.3,7.989-10.107,11.669-3.1,6.312,8.3-6.345,13.752-7.406,16.227-3.156l1.573,2.7-12,11.3c-22.4,21.094-23.95,22.653-23.253,23.4.357.383,3.053-1.134,5.953-3.35,2.944-2.25,9.3-6.161,14.3-8.8,5-2.639,9.622-5.229,10.4-5.827,1.389-1.068,4.5-2.936,7-4.203,1.811-.918,4.211.58,6.058,3.78,1.418,2.458,1.142,2.798-16.558,20.4-9.9,9.845-20.88,21.5-24.4,25.9-3.52,4.4-6.67,8.223-7,8.495-1.3,1.071-25,33.593-25,34.305,0,.221-2.526,4.6-5.654,9.8-6.376,10.6-12.23,22.61-15.256,31.3-1.149,3.3-2.09,6.135-2.09,6.3s7.8.3,17.4.3h17.4l1.15-3.75c.644-2.1,1.524-4.63,2-5.75.468-1.1,1.865-4.7,3.105-8,4.396-11.693,16.544-34.6,26.781-50.5,6.503-10.1,21.464-29.418,29.352-37.9,4.278-4.6,7.812-8.807,7.812-9.3,0-1.554,3.205-.9,4.897,1,.898,1.008,3.803,3.318,6.603,5.25,4.5,3.105,5.7,3.45,12,3.45,6.65,0,7.6-.317,19-6.35,6.6-3.492,13.193-7.205,14.65-8.25,1.5-1.075,2.867-1.9,3.15-1.9.276,0,4.25-2.133,8.85-4.75,4.6-2.617,9.697-5.415,11.35-6.231,4.196-2.071,4.614-2.919,3.894-7.919-1.612-11.2-18.676-46.529-25.994-53.818-2.24-2.231-2.723-.782-.906,2.718,2.285,4.4,1.693,8.422-1.294,8.805-1.3.167-3.278,1.251-4.55,2.495-1.262,1.234-4.05,3.649-6.35,5.5-2.3,1.851-4.495,4.705-5,6.5-.647,2.3-1.434,3.156-2.8,3.042-2.477-.206-3.615,1.558-2.874,4.458,1.356,5.307-3.809.1-12.795-12.9-2.544-3.68-8.08-11.05-12.281-16.35-4.202-5.3-7.515-10.349-7.35-11.2.167-.864,3.4-3.189,7.3-5.25,3.85-2.035,10.6-5.703,15-8.15s9.08-4.678,10.4-4.957c3.3-.697,3.626-2.125,1.093-4.793-1.058-1.114-1.993-3.25-1.993-4.55,0-2.013,1.15-3.003,6.45-5.55,3.5-1.682,7.456-3.1,8.65-3.1,3.792,0,14.528,13.4,30.046,37.5,9.079,14.1,18.699,32.374,23.321,44.3,2.907,7.5,3.729,8.24,6.433,5.79,2.758-2.5,73.5-44.352,95-56.203,3.107-1.712,8.65-4.935,12.45-7.237,3.8-2.302,7.006-4.15,7.2-4.15.192,0,9.05-5.004,19.65-11.1,10.6-6.096,21.328-12.246,23.8-13.641,31.9-18.016,44.71-25.187,51-28.549,4.1-2.192,10.447-5.696,14-7.729,7.521-4.304,14.2-8.021,22-12.245,56.9-30.808,62.022-33.914,72.9-44.215,7.939-7.518,13.012-14.721,18.676-26.521,4.032-8.4,4.298-9.091,5.85-15.2.813-3.2,1.748-6.248,2.086-6.8,1.009-1.649.749-29.6-.308-33.1-4.168-13.8-5.807-18.184-8.932-23.9-9.242-16.9-21.513-28.576-37.872-36.037-11.411-5.204-10.7-4.995-25.4-7.485-9.5-1.609-20.266-1.74-27-.327h0ZM1156.396,58.544c1.913,1.063,1.7,1.243-2.4,2.027-22.8,4.358-38.722,13.336-57.176,32.24-6.252,6.405-6.454,5.8-1.499-4.5,4.041-8.4,10.804-17.319,16.075-21.201,5.4-3.976,16.142-9.041,21.1-9.95,5.4-.99,21.284-.07,23.9,1.384h0ZM1036.896,163.67c-2.49,2.449-7.7,6.96-16.9,14.635-3,2.503-6.978,5.86-8.95,7.555-2,1.718-5.078,4.098-7.05,5.45-1.9,1.303-3.729,2.651-4,2.95-.273.3-3,2.594-6,5.046q-7.1,5.804-17.5,14.006c-5,3.943-9.711,7.67-10.6,8.384-2.003,1.61-11.8,9.15-22.9,17.625-4.7,3.588-9.104,7.071-9.85,7.789-.736.709-4.6,3.732-8.5,6.65-3.933,2.943-10.75,8.073-15.15,11.4-4.4,3.328-8.922,6.905-10.05,7.95-1.122,1.04-4.2,3.145-6.8,4.65-4.6,2.663-4.812,2.695-6.7,1-1.1-.987-1.95-2.099-1.95-2.55,0-2.553,24.7-23.914,43-37.186,3.6-2.611,8.597-6.375,11.2-8.436,4.9-3.88,19.444-15.055,23.8-18.286,10.56-7.833,16.2-11.799,28.2-19.827,7.5-5.017,14.175-9.165,14.75-9.165.6,0,1.05-.343,1.05-.8,0-.963,31.3-21.116,32.9-21.183.217-.009-.7,1.065-2,2.343h0Z"/>
      <path d="M381.396,35.424c-5.4,2.599-7.833,7.448-6.414,12.786,1.18,4.438,4.714,8.358,9.214,10.219,2.722,1.125,3.6,1.014,7.2-.914,4.1-2.195,8.6-7.744,8.6-10.605,0-4.752-5.1-11.221-9.9-12.558-4.278-1.192-3.9-1.239-8.7,1.071h0Z"/>
      <path d="M967.646,44.01c-.362.39-3.2,1.033-6.4,1.45s-7.524,1.193-9.75,1.75c-2.2.55-5.35,1.293-7,1.65-1.7.368-3.867.995-5,1.445-18.9,7.517-27.077,12.409-36.276,21.704-6.303,6.369-8.132,9.1-13.124,19.6-3.185,6.7-6.821,14.905-8.064,18.2-2.868,7.6-4.637,11.759-7.613,17.9-1.357,2.8-2.423,5.66-2.423,6.5,0,.828,3.9-2.364,8.7-7.12,12.568-12.453,13.9-13.514,32.8-26.128,22.2-14.816,27.662-19.673,43.355-38.552,4.738-5.7,10.146-11.937,11.967-13.8,3.126-3.2,3.435-5.3.778-5.3-.7,0-1.6.323-1.95.7h0Z"/>
      <path d="M505.996,65.86c-.556,1.417-1.267,3.75-1.6,5.25-.712,3.204-3.909,12-6.507,17.9-1.057,2.4-1.893,4.477-1.893,4.7,0,.856-10.222,17.1-14.725,23.4-2.526,3.533-8.205,10.7-12.68,16-22.375,26.5-29.75,36.987-38.396,54.6-5.94,12.1-8.198,17.967-8.198,21.3,0,1.2-.409,2.45-.9,2.75-.504.308-1.142,2.2-1.45,4.3-.303,2.062-1.09,6.45-1.75,9.75-.792,3.96-1.285,21.3-1.45,51-.237,42.7-.359,45.404-2.387,52.9-2.462,9.1-6.087,16.211-12.54,24.6-5.385,7-17.181,17.875-20.223,18.643-2.2.555-3.285,3.357-1.3,3.357.552,0,4.25-1.076,8.25-2.4,4-1.324,10.253-3.339,13.95-4.494,15.701-4.906,38.2-17.605,59.3-33.468,8.41-6.323,31.979-29.338,39.568-38.638,5.467-6.7,14.932-19.568,14.932-20.3,0-.278,1.697-3.3,3.818-6.8,4.848-8,12.182-23.17,12.182-25.2,0-.9.394-1.841.9-2.15.5-.306,1.118-1.75,1.391-3.25.486-2.674,2.696-11.7,4.749-19.4,1.637-6.137,2.204-29.8,1.005-41.9-2.283-23.037-3.934-31.2-12.038-59.5-3.723-13-11.622-36.121-12.983-38-.395-.545-2.201-4.75-3.974-9.25s-3.432-8.25-3.65-8.25c-.22,0-.851,1.15-1.4,2.55h0ZM480.846,144.56c-1.63,2.9-4.334,7.488-6.042,10.25-5.318,8.6-7.062,11.737-11.117,20-5.889,12-9.245,19.506-10.952,24.5-.855,2.5-2.2,6.278-3.027,8.5-1.505,4.046-5.016,15.5-6.437,21-.676,2.618-.82,2.3-1.127-2.5-.787-12.279,4.407-34.2,11.372-48,2.978-5.9,11.714-19.612,13.38-21,.328-.273,3.545-3.9,7.097-8,5.371-6.2,8.836-9.793,9.603-9.957.11-.024-1.12,2.307-2.75,5.207h0ZM520.98,192.81c-1.283,11.5-1.491,12.77-2.866,17.5-.552,1.9-1.458,5.1-1.98,7-3.246,11.8-13.491,34.058-20.667,44.9-3.49,5.273-4.443,3.6-1.596-2.8,2.146-4.824,4.501-12.7,8.101-27.1,1.173-4.692,3.715-14.1,5.675-21,1.96-6.9,3.908-13.844,4.35-15.5.442-1.659,1.962-6.8,3.4-11.5,1.438-4.7,2.608-9.662,2.619-11.1.038-5.308,1.541-3.8,2.792,2.8,1.018,5.372,1.055,8.9.173,16.8h0Z"/>
      <path d="M414.446,98.36c-2.453,2.537-2.95,3.9-2.95,8.1,0,4.3.416,5.406,2.8,7.445,3.929,3.361,7.1,3.942,11.1,2.034,7.1-3.386,8.91-11.962,3.701-17.529-2.373-2.536-3.701-3.1-7.301-3.1s-4.936.555-7.35,3.05h0Z"/>
      <path d="M202.596,136.954c-5.2,1.809-6.62,3.108-8.805,8.056-4.365,9.888,4.105,21.514,14.405,19.771,11.5-1.945,16.606-16.52,8.5-24.262-4.276-4.085-9.1-5.305-14.1-3.565h0Z"/>
      <path d="M586.696,150.938c-.923.256-2.461,2.072-3.365,3.972-2.141,4.5-1.003,8.111,3.365,10.675,3.408,2.001,5.4,1.572,9.6-2.065,2.36-2.044,2.3-8.35-.1-10.51-2.036-1.833-6.7-2.85-9.5-2.072h0Z"/>
      <path d="M1275.296,171.84c-2.954,2.301-3.3,3.12-3.3,7.82,0,4.4.405,5.606,2.5,7.448,3.4,2.989,9.606,2.968,12.8-.043,5.6-5.28,5.982-9.272,1.355-14.154-4.229-4.462-8.555-4.808-13.355-1.07h0Z"/>
      <path d="M71.996,204.21c0,3.051,12.312,23.8,23.2,39.1,14.891,20.924,35.7,41.746,58.1,58.135,8.5,6.219,22.765,15.517,28.7,18.708,9,4.837,29.902,15.157,30.7,15.157.499,0,2.75.892,5.05,2,2.3,1.108,4.618,2,5.2,2,.6,0,1.8.407,2.8.95.969.526,3.2,1.53,5,2.25,1.8.72,3.25,1.702,3.25,2.2,0,1.856-36-.673-48.5-3.407-2.8-.612-6.21-1.335-7.75-1.643-1.5-.3-3-.959-3.3-1.45-.293-.48-1.25-.9-2.05-.9-3.095,0-18.1-8.191-26.6-14.521-4.8-3.574-12.533-10.379-17.25-15.179-4.717-4.8-8.807-8.431-9.123-8.1-.771.808,5.128,11.6,11.916,21.8,15.646,23.508,41.556,43.521,67.656,52.256,6.99,2.339,10.9,3.355,26.5,6.886,4.174.945,13,1.328,29,1.26,22.6-.096,25.401-.375,45-4.486,11.14-2.336,14.1-3.265,41.3-12.959,6.7-2.388,7.902-3.999,6.233-8.358-.557-1.456-1.033-4.75-1.033-7.15s-.438-6.408-.95-8.7c-.518-2.318-1.451-6.75-2.052-9.75-5.992-29.9-17.85-56.125-35.496-78.5-8.044-10.2-14.344-16.958-15.101-16.2-.323.323-.115,1.2.45,1.9.57.706,2.369,2.9,3.936,4.8,2.803,3.4,11.214,15.775,11.214,16.5,0,.221,1.524,3,3.4,6.2,1.889,3.222,5.048,9.8,7.108,14.8,6.221,15.1,6.751,16.844,9.419,31,1.15,6.1,2.517,13.138,3.069,15.8,1.265,6.1,1.266,8.7.004,8.7-.533,0-1-.7-1-1.5,0-.857-.386-2.25-.9-3.25-.504-.98-1.311-2.85-1.833-4.25-5.151-13.797-22.934-44-36.8-62.5-11.018-14.7-15.501-19.664-23.867-26.427-12.5-10.105-19.1-14.102-31.6-19.136-5.748-2.315-7.5-2.79-20-5.423-10.4-2.191-32.325-1.665-32.782.786-.206,1.105.382,1.7,1.682,1.7,1.13,0,3,.391,4.3.9,1.278.5,4.3,1.433,6.8,2.1,2.5.667,5.278,1.6,6.25,2.1.987.508,2.6.9,3.7.9s2.211.436,2.55,1c.32.533,1.3,1,2.1,1,2.248,0,16.6,7.387,23.7,12.198,3.4,2.304,8.639,6.495,11.6,9.28,5.735,5.394,15.165,18.821,18.976,27.021,1.301,2.8,2.698,5.726,3.174,6.65.464.9,1.145,3.4,1.5,5.5l.65,3.85-2.842-3.5c-3.248-4-9.936-10.76-13.058-13.199-10.319-8.061-31-20.319-42.5-25.191-2.1-.89-5.232-2.232-7-3.002-10.885-4.735-29.3-10.599-52.3-16.655-2.2-.579-5.372-1.48-7.05-2.003-1.7-.53-4.002-.95-5.2-.95-1.215,0-3.15-.391-4.45-.9-1.278-.5-4.3-1.433-6.8-2.1-2.5-.667-5.611-1.555-7-2-1.389-.445-4.5-1.345-7-2.027-8.3-2.264-11.52-3.206-13.5-3.951-4.8-1.806-24.239-8.252-26.3-8.721-1.3-.296-2.2-.051-2.2.599h0Z"/>
      <path d="M587.096,221.591c-8.5,3.005-9.536,15.404-1.6,19.156,4.118,1.947,5.9,1.934,10.1-.07,6.6-3.15,8.34-10.733,3.687-16.066-3.213-3.682-7.387-4.716-12.187-3.019h0Z"/>
      <path d="M1232.996,243.257c-10.7,2.26-12.041,15.321-2.1,20.455,5.84,3.016,15.1-3.302,15.1-10.302,0-6.847-6.1-11.611-13-10.153h0Z"/>
      <path d="M1314.896,273.77c-2,1.3-5.111,3.154-7,4.172-7.775,4.189-37.4,23.533-51.1,33.366-46.7,33.517-77.796,65.046-101.59,103.002-15.581,24.855-31.895,68.3-35.673,95-.357,2.52-1.029,6.7-1.527,9.5-4.097,23-3.541,70.404,1.049,89.5.463,1.925,1.359,6.2,1.991,9.5s1.51,7.125,1.95,8.5c.437,1.367,1.813,5.9,3.034,10,5.718,19.2,17.711,45.333,27.764,60.5,10.804,16.3,31.661,37.846,33.589,34.7.338-.552-.194-2.95-1.187-5.35-1-2.417-2.378-6.35-3.1-8.85-.722-2.5-1.7-5.522-2.2-6.8-.487-1.246-.9-3.4-.9-4.7s-.413-2.652-.9-2.95c-.498-.305-1.145-2-1.45-3.8-.308-1.82-1.034-5.45-1.65-8.25-.616-2.8-1.32-6.54-1.6-8.5-.271-1.9-.911-4.414-1.4-5.5-.5-1.111-1.1-4-1.35-6.5-.248-2.475-1.006-9.9-1.685-16.5-2.594-25.2-1.657-66.899,2.054-91.5.543-3.6,1.248-8.508,1.581-11,.333-2.5,1-4.922,1.5-5.45.51-.538.9-2.25.9-3.95,0-1.672.42-4.35.95-6.05.522-1.677,1.425-4.85,2.006-7.05,7.848-29.724,21.392-58.9,41.548-89.5,15.611-23.7,38.853-48.518,61.496-65.664,8.806-6.668,28.9-19.657,37.8-24.435,4.5-2.416,8.407-4.943,8.659-5.601.782-2.047-2.056-34.6-4.473-51.3-.593-4.1-1.396-10.447-1.77-14-.789-7.5-1.799-8.126-7.316-4.54h0Z"/>
      <path d="M1168.546,292.21c-.363.615-2.15,1.1-4.05,1.1s-3.643.397-3.95.9c-.305.499-2,1.123-3.8,1.4-1.787.275-5.05,1.032-7.25,1.682-3.718,1.098-7.1,1.906-15,3.582-1.7.36-3.867.983-5,1.436-1.12.448-3.1,1.008-4.5,1.273-13.5,2.557-51.386,22.484-59.558,31.327-3.031,3.28-3.164,3.8-3.759,14.7-1.201,22-2.934,35.136-4.783,36.255-.494.299-.9,1.695-.9,3.095,0,2.413.3,2.275,5.6-2.577,7.061-6.465,14.3-11.354,25.9-17.494,21.5-11.379,24.431-13.506,40-29.026,8.3-8.274,18.455-18.88,22.55-23.553,4.119-4.7,10.557-11.741,14.4-15.75,4.985-5.2,6.639-7.561,5.85-8.35-.8-.8-1.277-.8-1.75,0h0Z"/>
      <path d="M48.096,303.276c-8.299,2.093-13.135,11.734-10.653,21.234,2.849,10.9,13.583,15.853,23.453,10.82,4.795-2.445,7.776-6.12,9.181-11.32,3.527-13.052-8.281-24.19-21.981-20.734h0Z"/>
      <path d="M1322.496,374.588c-51.389,31.404-83.879,72.722-106.333,135.222-3.578,9.961-4.928,14.2-9.554,30-1.385,4.729-5.648,22.3-7.037,29-6.363,30.7-7.085,81.765-1.556,110,.534,2.727,1.438,7.5,1.99,10.5,1.12,6.1,2.434,11.828,3.899,17,.543,1.919,1.759,6.55,2.691,10.25s2.016,6.75,2.4,6.75c.382,0,1.274-2,1.963-4.4,1.064-3.706,9.055-18.9,18.988-36.1,3.104-5.375,24.216-36,36.192-52.5,18.129-24.978,31.404-48.1,43.632-76,3.127-7.136,9.793-27.7,12.156-37.5,1.205-5,2.569-10.556,3.069-12.5.489-1.9,1.151-5.1,1.449-7,5.087-32.437,5.547-39.3,5.5-82-.042-38.3-.317-45-1.849-45-.334,0-3.7,1.895-7.6,4.278h0ZM1305.215,415.51c4.342,8.391,1.981,13.764-12.219,27.816-9.5,9.401-24.492,26.49-27.708,31.584-2.534,4.014-1.332-2.3,1.771-9.3,8.244-18.6,14.823-28.847,26-40.5,2.756-2.873,4.268-6,5.368-11.1.875-4.058,4.304-3.3,6.788,1.5h0ZM1294.196,481.99c1.293,1.164,1.8,3.07,1.8,6.77,0,4.5-.454,5.686-3.6,9.4-1.998,2.358-7.45,7.455-12.25,11.45-4.744,3.949-12.85,10.971-17.95,15.55-5.1,4.579-9.548,8.101-9.85,7.8-.306-.306.828-2.55,2.55-5.05,1.722-2.5,3.1-4.922,3.1-5.45,0-.57.3-1.09.75-1.3.416-.194,3.09-4.05,6-8.65,2.895-4.577,9.31-13.1,14.3-19,4.99-5.9,9.507-11.283,10.069-12,1.293-1.65,2.881-1.5,5.081.48h0Z"/>
      <path d="M633.496,381.263c-12.1.301-22.472.862-23.05,1.247-.576.384-7.8.79-16,.9-8.2.11-18.788.539-23.45.95-4.69.414-15,1.286-23,1.946-13.15,1.085-21.2,1.94-48,5.101-4.7.554-11.182,1.405-14.5,1.902-3.343.501-9.1,1.334-13,1.88-6.447.903-11.3,1.705-25,4.134-2.8.496-6.76,1.37-9,1.986-2.222.611-6,1.5-8.5,2s-6.278,1.389-8.5,2c-2.2.605-5.575,1.505-7.5,2-1.96.504-5.15,1.362-7.25,1.95-2.1.588-5.158,1.451-6.95,1.962-5.6,1.596-19.723,6.711-20.4,7.388-.373.373-1.4.7-2.2.7-2.923,0-23.8,10.942-30.3,15.882-9.2,6.991-16.575,15.404-20.177,23.018-2.978,6.295-3.123,7.2-3.123,19.6,0,12.6.098,13.212,3.195,19.9,4.503,9.724,12.219,19.6,28.129,36,19.305,19.9,24.953,26.936,31.787,39.6,12.196,22.6,14.56,49.019,6.263,70-5.191,13.127-9.073,17.536-38.474,43.693-28.1,25-40.709,38.897-56.352,62.107-15.523,23.031-25.263,46.5-30.38,73.2-1.246,6.5-1.756,47.362-.637,51,.426,1.384,1.676,7.5,2.8,13.7,2.012,11.1,8.588,32.407,12.19,39.5,1.016,2,1.879,4.159,1.879,4.7,0,3.832,18.282,38.2,31.331,58.9,2.837,4.5,6.918,10.997,9.044,14.4,4.182,6.692,6.109,9.4,20.137,28.3,14.247,19.196,44.142,54.7,62.308,74,12.895,13.7,43.711,45.996,47.18,49.446,10.4,10.344,32.787,35.335,36.329,40.554l4.071,6,.8,14.85c.733,13.6,1.052,15.38,3.799,21.15,3.887,8.166,15.201,18.819,25.901,24.387,7.295,3.796,26.4,10.612,36.3,12.95,12.924,3.053,21.7,4.829,35.3,7.142,3.3.561,8.7,1.482,12,2.046,35.8,6.115,97.307,8.845,133,5.904,44.1-3.633,66.923-6.839,98.5-13.833,2.454-.544,8.75-2.383,13.85-4.047,5.1-1.664,10.35-3.062,11.55-3.076,2.856-.033,16.2-6.834,24.1-12.283,6.5-4.484,14.774-13.29,17.09-18.191,2.125-4.495,2.487-7.05,3.06-21.55.565-14.3.918-16.842,2.703-19.45,3.715-5.43,11.888-14.8,23.114-26.5,6.045-6.3,14.154-14.891,17.934-19,3.777-4.105,11.021-11.8,16.005-17,11.488-11.987,42.632-46.6,53.086-59,4.384-5.2,8.97-10.632,10.132-12,6.03-7.1,13.457-16.191,17.973-22,5.597-7.2,31.404-43.687,31.404-44.4,0-.273,2.32-4,5.104-8.2,4.8-7.24,8.524-13.3,13.153-21.4,10.457-18.3,23.698-48.171,27.838-62.8.5-1.768,1.392-4.9,1.994-7,5.401-18.848,7.616-41.1,6.061-60.9-2.332-29.7-5.438-41.664-17.081-65.8-5.934-12.3-20.555-36.187-24.669-40.3-.757-.757-2.663-3.1-4.15-5.1-3.21-4.32-11.324-13.2-20.284-22.2-6.498-6.527-10.867-10.458-33.667-30.295-11.9-10.354-20.738-20.013-23.245-25.405-.697-1.5-1.655-3.478-2.155-4.45-.508-.987-.9-2.6-.9-3.7s-.392-2.195-.9-2.513c-1.519-.949-2.337-8.438-2.409-22.037-.076-14.3.54-19.138,3.552-27.9,6.221-18.099,15.712-32,35.909-52.6,20.982-21.4,23.28-24.271,29.617-37l4.729-9.5v-11.6c0-6.4-.493-12.676-1.1-14-.602-1.313-2.323-5.05-3.8-8.25-1.477-3.2-5.044-8.341-7.874-11.35-10.819-11.5-32.568-23.236-43.126-23.271-5.086-.017-8.6,3.771-8.6,9.271,0,3.265.8,4.492,6.8,10.436,10.707,10.607,11.684,18.464,3.664,29.464-5.093,6.985-17.264,14.4-39.464,24.042-7.37,3.201-28,9.766-40.3,12.825q-13,3.233-25.4,5.973c-2.618.578-7.3,1.538-10.3,2.11-3,.573-7.773,1.479-10.5,1.993-6.844,1.291-15.7,2.751-23.8,3.922-17,2.458-21.747,3.115-29.2,4.042-22.9,2.849-45.764,4.893-68,6.079-10.5.56-26.605,1.438-36,1.963-9.36.523-36.1.885-59.5.806-37.4-.127-51.515-.591-75.5-2.483-3.29-.26-13-.97-21.5-1.573-8.5-.603-17.306-1.26-19.5-1.454-9.7-.858-25.729-2.535-33.5-3.505-32.1-4.005-39.306-3.981-61,.201-8.302,1.6-25.6,1.599-34-.003-3.6-.687-8.062-1.463-10-1.74-1.9-.271-4.414-.888-5.5-1.35-1.12-.476-3.1-1.082-4.5-1.378-5.6-1.182-9.933-2.529-13-4.043-1.8-.889-3.709-1.629-4.2-1.629-1.869,0-18.6-8.495-24.3-12.337-7.8-5.258-19.736-17.154-21.736-21.663-5.5-12.4-4.902-18.222,2.846-27.7,2.861-3.5,17.203-14.3,18.99-14.3.219,0,.4,2.4.4,5.3,0,6.609,3.9,13.781,10.7,19.676,9.371,8.124,36.4,19.416,59.8,24.983,5,1.19,10.333,2.519,12,2.991,1.671.474,6.1,1.381,10,2.05,3.9.668,8.55,1.576,10.5,2.05,1.944.472,5.5,1.139,8,1.5,2.475.357,7.2,1.051,10.5,1.541,13.7,2.035,34.856,4.574,48.5,5.821,19.9,1.819,32.62,3.1,36.6,3.685l4.1.603,2.8-5.35c1.518-2.9,3.647-6.564,4.65-8,1.047-1.5,1.85-2.954,1.85-3.35,0-1.098,8.051-12.6,15.398-22,14.225-18.2,24.014-28.553,41.602-44.001,11.5-10.1,54.359-40.079,61.6-43.087,1.9-.789,3.4-1.854,3.4-2.412,0-1.058-44.9-1.083-86.5-.047h0ZM422.44,550.21c.308.498,2.005,1.101,3.806,1.35,1.779.246,7.55,1.44,12.75,2.636,10.2,2.347,17.637,3.857,25.5,5.175,2.8.47,7.2,1.288,10,1.861,8.6,1.759,15.743,3.069,22.5,4.126,7.649,1.196,15.1,2.456,23.5,3.974,7.1,1.283,18.013,2.85,25,3.589,6.5.687,8.061,1.221,6.9,2.357-1.01.989-34.6-.382-48.4-1.975-18.5-2.136-23.882-2.996-37.5-5.993-2.8-.616-6.21-1.343-7.75-1.65-1.5-.3-3-.959-3.3-1.45-.292-.478-1.7-.9-3-.9s-3.271-.446-4.2-.95c-.972-.528-3.75-1.596-6.25-2.403-8.8-2.841-24-9.331-24-10.247,0-.838,3.889-.4,4.444.5h0ZM429.196,595.46c2.1.47,5.478,1.275,7.55,1.8,2.062.522,5.55,1.381,7.75,1.909,4.05.971,14.3,3.52,20.5,5.099,3.227.822,5.4,1.318,17,3.885,5.5,1.217,14.255,2.916,19,3.688,1.96.319,5.7.987,8.5,1.519,2.75.522,7.7,1.378,11,1.9,3.323.526,8.9,1.414,12.5,1.989,52.378,8.373,111,12.755,173.1,12.94,36.4.108,73.964,1.194,73.358,2.121-.253.387-2.808,1.013-5.708,1.4-2.908.388-8.15,1.119-11.75,1.64-24.256,3.508-53.1,4.915-98.5,4.806-37.4-.09-71.34-1.173-87.5-2.793-5.796-.581-16.1-1.501-23-2.053-6.9-.552-15.636-1.448-19.5-2-3.85-.55-10.6-1.474-15-2.053-13.6-1.791-24.272-3.659-33-5.776-2.222-.539-6-1.429-8.5-2.002-21.4-4.904-49.19-15.237-54.7-20.339-1.3-1.204-2.3-2.956-2.3-4.03,0-1.045-.482-2.8-1.07-3.9-1.592-2.975-.23-3.877,3.27-2.165,1.769.865,4.9,1.946,7,2.415h0ZM440.296,643.498c2.208,1.181,6.3,2.354,13.2,3.783,2.2.456,5.8,1.346,8,1.979s5.665,1.574,7.7,2.093c10.4,2.65,12.573,3.182,16.3,3.99,2.222.482,6,1.341,8.5,1.933,6.8,1.61,13.907,3.079,19.5,4.029,6.9,1.172,16.036,2.841,22,4.018,2.769.547,7.9,1.478,11.5,2.087,3.6.609,8.865,1.506,11.8,2.009,11.9,2.042,17.092,2.777,24.5,3.47,4.2.393,7.7,1.13,7.7,1.62,0,1.145-53.7.24-68.5-1.155-15.6-1.47-26.844-3.171-40-6.051-2.8-.613-6.43-1.336-8.25-1.644-1.8-.305-3.495-.952-3.8-1.45-.292-.478-1.7-.9-3-.9s-3.389-.469-4.45-1c-1.1-.55-2.9-1.45-4-2s-2.495-1-3.1-1c-2.324,0-13.2-6.127-16.4-9.239-5.905-5.743-5.4-9.89.8-6.573h0ZM398.596,674.892c2.1.871,5.285,2.21,6.9,2.901,12,5.133,16.439,6.803,27.6,10.384,11.8,3.786,23.789,7.229,32.2,9.245,2,.479,5.4,1.324,7.4,1.839,10.9,2.805,15.9,3.938,26.8,6.073,3.3.646,8.025,1.587,10.5,2.09,22.136,4.501,66.3,10.346,89.5,11.845,7.2.465,13.892,1.108,15,1.441,6.591,1.98,107.9,2.59,137,.826,56.7-3.438,81.418-5.713,110.7-10.188,3.7-.565,9.649-1.472,13.05-1.989,3.4-.517,8.986-1.406,12.25-1.95,3.3-.55,8.7-1.447,12-1.992,23.7-3.918,74.656-15.948,88-20.776,3.9-1.411,8.218-2.754,9.75-3.032,1.5-.273,3.002-.909,3.304-1.4.739-1.2,3.446-1.2,3.446,0,0,1.829-42.1,21.72-61.5,29.056-7.6,2.874-10.574,4.081-12.8,5.194-.944.472-2.5.85-3.5.85s-2.222.378-2.75.85c-.528.472-2.95,1.428-5.45,2.15-2.454.709-7,2.107-10,3.076-8.4,2.712-16.137,5.021-20,5.967-1.925.471-5.3,1.375-7.5,2.007-2.165.622-5.95,1.563-8.25,2.05-2.302.487-6.45,1.383-9.05,1.954-22.832,5.013-44,8.059-68.7,9.885-7.2.532-14.562,1.232-16.5,1.568-3.855.668-5.9.761-56.5,2.577-63.1,2.264-136.985-1.653-189-10.018-3.323-.534-8.9-1.431-12.5-2.01-18.3-2.943-43.525-8.321-56-11.94-1.95-.566-6.6-1.893-10.5-2.998-12.5-3.54-30.11-9.726-41.8-14.684-16.2-6.87-33.715-17.146-33.636-19.734.02-.668,1.786-2.285,3.986-3.65,2.2-1.365,5.372-3.912,7.16-5.75,3.678-3.782,4.19-3.876,9.39-1.718h0ZM350.296,732.76c16.6,8.083,32.09,14.768,40.7,17.564,3.041.987,9.3,3.217,14,4.986,4.7,1.769,9.841,3.558,11.5,4,1.671.446,6.1,1.774,10,3,8,2.514,12.286,3.688,18,4.93,2.182.474,6.5,1.529,9.5,2.32,3.025.797,8.2,2.013,11.5,2.7,3.3.688,7.125,1.61,8.5,2.05s4.3,1.105,6.5,1.477c5.072.859,12.6,2.271,19,3.565,22.44,4.535,55.4,9.286,82.4,11.879,13.2,1.267,15.971,1.882,19.4,4.3,4.2,2.962,4.974,5.132,3.273,9.179-2.581,6.143-5.073,6.6-35.973,6.6-34.3,0-75.201-3.206-100.6-7.887-3.025-.557-8.2-1.466-11.5-2.019-8.3-1.391-16.178-2.911-21.5-4.148-2.5-.581-6.5-1.434-9-1.918-17.1-3.313-43.896-11.801-54.4-17.232-10.2-5.274-23.968-14.207-22.6-14.663,1.067-.356,6.9.585,17.5,2.823,2.229.47,7.1,1.361,11,2.011,7.5,1.25,14.746,2.694,20.5,4.087,1.925.466,6.2,1.364,9.5,1.997,3.3.633,7.193,1.6,8.65,2.15,1.5.566,3.67.826,5,.6,2.2-.374,2.222-.451.35-1.2-1.079-.432-3.45-1.445-5.15-2.2-1.708-.759-5.85-2.283-9.05-3.33-6.4-2.094-31.985-11.166-36.8-13.049-13.8-5.397-42.5-21.483-42.5-23.821,0-.9,5.876-8.2,6.6-8.2.22,0,7.3,3.36,15.7,7.45h0ZM1064.996,735.81c0,1.159-29.8,14.694-43.4,19.712-4.5,1.66-10.544,3.889-13.6,5.015-15.1,5.563-28.088,10.041-33,11.377-3,.816-7.545,2.21-10,3.067-4.524,1.579-8.4,2.704-15,4.354-1.925.481-5.3,1.37-7.5,1.975-2.2.605-5.575,1.505-7.5,2-1.925.495-5.3,1.417-7.5,2.05-2.2.632-5.8,1.532-8,2-2.222.472-6,1.318-8.5,1.902-6.637,1.552-17.9,3.88-28.8,5.954-2.585.492-7.4,1.412-10.7,2.044-3.289.63-9.05,1.579-12.75,2.1-3.75.528-9.95,1.414-13.95,1.995-18.892,2.742-44.2,4.969-65.8,5.79-9.6.365-17.951.962-18.5,1.323-1.28.841-47.1-1.766-57.5-3.271-4.1-.594-9.313-1.29-11.5-1.536-2.2-.247-4.675-.724-5.5-1.058-1.366-.554,17.4-2.583,49.5-5.353,65.8-5.678,89.316-8.21,129.5-13.94,3.9-.556,9.967-1.415,13.7-1.939,5.963-.837,22.3-3.666,35.3-6.112,2.455-.462,7-1.301,10-1.847,3-.545,7.545-1.457,10-2.005,4.503-1.006,5.8-1.263,16-3.168,3-.56,7.091-1.435,9-1.925,11.9-3.051,16.769-4.256,19-4.703,1.375-.275,7-1.76,12.5-3.3,5.5-1.54,12.25-3.357,15-4.037,6.9-1.707,52.675-16.735,54.5-17.892,1.6-1.015,5-1.403,5-.571h0ZM301.296,777.91c.781.781,9.7,4.164,14.2,5.385,1.659.45,6.8,2.245,11.5,4.015s9.841,3.602,11.5,4.1c1.66.498,9.7,3.156,18,5.95,8.3,2.794,17.903,5.876,21.5,6.9,3.553,1.011,9.9,2.825,14,4,4.1,1.175,9.087,2.558,11,3.05,1.925.495,5.3,1.417,7.5,2.05,2.222.639,6,1.528,8.5,2,2.5.472,6.5,1.339,9,1.95,2.52.616,6.7,1.518,9.5,2.05s6.98,1.412,9.5,2c2.52.588,6.7,1.446,9.5,1.95,2.8.504,7.2,1.385,10,2.003,8.546,1.885,23.1,4.603,32.7,6.106,7.2,1.127,15.3,2.407,24.3,3.84,11.714,1.864,30.5,4.34,46,6.063,4.424.491,11.8,1.362,16.5,1.948,13.052,1.626,40.2,3.772,63.5,5.018,11.6.62,24.581,1.548,29,2.073,4.434.527,11.7.95,16.3.95s8.053.401,7.747.9c-1.627,2.646-125.347,3.613-161.547,1.263-40.9-2.655-81.211-7.353-103-12.003-2.455-.524-7-1.48-10-2.103-10.3-2.14-18.52-4.086-25.5-6.039-2.2-.615-5.575-1.493-7.5-1.95-3.51-.834-5.6-1.509-9.5-3.069-1.1-.44-5.6-1.931-10-3.313-17-5.339-44.891-17.746-53.8-23.932-9.7-6.735-23.7-20-23.7-22.455,0-1.4,2.145-1.855,3.3-.7h0ZM294.196,837.26c2.339,1.061,6.9,2.882,10,3.993,13.5,4.84,16.765,6.045,25.3,9.342,10.463,4.041,18.9,6.885,37.5,12.639,7.4,2.289,14.63,4.592,16,5.097,2.983,1.099,20.8,5.81,26.8,7.086,2.299.489,6.35,1.368,8.95,1.943,2.6.575,6.787,1.457,9.25,1.95,2.52.504,6.7,1.384,9.5,2s6.76,1.32,9,1.6c2.2.275,4.9.905,6,1.4,1.111.5,4,1.144,6.5,1.45,2.475.302,7.2.977,10.5,1.5,3.343.529,9.1,1.448,13,2.074,14.557,2.338,26.3,4.039,41,5.941,4.4.569,11.15,1.459,15,1.977,8.766,1.179,23.5,2.946,34.5,4.136,14.8,1.601,46.137,3.803,55,3.864,4.7.032,9.864.438,11.55.908,1.675.467,15.85,1.18,31.45,1.582,30.6.788,120.284-1.608,129.4-3.458,2.623-.532,9.2-.985,14.5-.999,14.427-.038,50.9-3.02,73.6-6.018,4.4-.581,11.375-1.462,15.5-1.957,10.565-1.268,21.8-3.036,38-5.982,2.5-.455,6.278-1.095,8.5-1.441,4.48-.698,13.1-2.303,19-3.539,2.2-.461,6.7-1.374,10-2.03,8.276-1.645,12-2.471,27-5.992,13.1-3.075,16.684-3.952,24-5.868,2.2-.576,5.125-1.318,6.5-1.648,1.37-.329,7.7-1.999,14-3.695,14.4-3.875,16-4.225,16-3.505,0,.885-8.1,4.34-22,9.385-19.808,7.189-43.5,14.662-66,20.817-5.2,1.422-11.084,2.983-13,3.449-1.925.468-7.1,1.811-11.5,2.986-7.631,2.038-12,3.088-21.3,5.122-10.5,2.296-14,3.048-18.2,3.914-2.52.52-6.7,1.412-9.5,2.028-2.736.602-7.4,1.534-10.3,2.059-16.533,2.992-17.1,3.087-35.7,5.943-3.6.553-9.4,1.45-13,2.012-14.9,2.324-20.349,3.076-28,3.863-4.4.453-8.675,1.093-9.5,1.423-.833.333-5.5.867-10.5,1.2-4.984.332-14.8,1.038-22,1.582-19.87,1.501-51.9,2.833-84.5,3.512-45.29.944-130.2-3.607-178-9.541-21.559-2.676-29.8-3.889-54.5-8.017-2.769-.463-7.9-1.327-11.5-1.936-3.6-.609-8.508-1.502-11-2-2.455-.491-7-1.4-10-2s-7.318-1.577-9.5-2.15c-2.2-.578-5.8-1.467-8-1.976-4.033-.934-7.9-1.965-14.5-3.866-1.95-.562-6.6-1.871-10.5-2.957-8.1-2.255-36.52-11.721-41-13.655-1.659-.716-6.8-2.719-11.5-4.479-11.5-4.308-33.65-15.252-44.3-21.888-4.119-2.566-4.44-4.028-2.597-11.828,1.559-6.6,2.662-9.3,3.797-9.3.558,0,2.9.862,5.3,1.95h0ZM307.196,921.17c4.958,2.115,14.3,5.303,20.8,7.098,2.5.69,5.611,1.622,7,2.096,3.25,1.11,25.7,7.954,29.5,8.993,11.1,3.035,27.625,7.298,31.2,8.049,2.4.504,6.178,1.323,8.55,1.853,2.318.518,6.75,1.473,9.75,2.1,3,.627,7.455,1.571,9.8,2.076,13,2.799,19.549,4.084,30.2,5.924,3,.518,7.773,1.363,10.5,1.859,4.733.861,9.8,1.74,24,4.166,3.289.562,9.05,1.454,12.75,1.975,3.699.521,10.05,1.412,14.05,1.972,9.507,1.331,33.9,4.084,52.7,5.948,43.016,4.264,122.3,6.645,171.5,5.151,64.3-1.953,123.377-6.14,158-11.198,3.85-.562,10.6-1.427,15-1.922,4.4-.495,11.375-1.395,15.5-2,4.1-.601,10.673-1.502,14.5-1.986,6.702-.848,12.9-1.768,26-3.857,3.3-.526,7.237-1.272,8.75-1.657,1.8-.458,2.75-.32,2.75.4,0,.587-.7,1.1-1.5,1.1-.857,0-2.25.407-3.25.95-.967.525-6.45,2.36-12.25,4.1-5.8,1.74-11.53,3.553-12.8,4.05-1.246.488-3.4.9-4.7.9s-2.652.412-2.95.9c-.305.498-2,1.123-3.8,1.4-1.788.275-5.05,1.018-7.25,1.65-2.2.633-5.8,1.6-8,2.15-2.2.55-5.8,1.457-8,2.016-6.273,1.593-16.5,3.747-37.8,7.962-12.3,2.434-23.115,4.278-35,5.969-3.697.526-9.95,1.424-13.95,2.003-4.009.581-11.05,1.475-15.75,2-4.7.525-12.076,1.387-16.5,1.928-9.021,1.103-32.3,2.735-59,4.137-28.149,1.478-68.3,1.034-138-1.528-8.8-.323-17.575-1.015-19.5-1.538-1.916-.52-7.8-1.176-13-1.448-10.422-.546-25.2-1.976-37.5-3.628-4.4-.591-11.375-1.487-15.5-1.991-10.416-1.273-23.2-3.179-39.5-5.886-3.323-.552-8.9-1.465-12.5-2.047-3.6-.582-8.731-1.518-11.5-2.1-2.8-.588-7.09-1.314-9.75-1.65-2.6-.328-4.999-.985-5.3-1.45-.311-.481-1.7-.85-3.2-.85-1.477,0-4-.42-5.7-.95-1.694-.528-5.05-1.458-7.55-2.093-12.443-3.16-17.2-4.575-35-10.41-16.7-5.475-24.444-8.434-33.1-12.65-4.4-2.143-8.18-3.896-8.4-3.896-.722,0-17.6-9.957-22-12.979-2.4-1.648-4.673-3.021-5-3.021-1.294,0-9.969-7.2-12.41-10.3-1.701-2.16-1.29-2.144,4.11.16h0ZM407.496,989.29c2.222.622,6,1.52,8.5,2.02s6.278,1.322,8.5,1.85c2.182.518,6.5,1.495,9.5,2.15,3,.655,7.318,1.632,9.5,2.15,2.2.522,5.8,1.355,8,1.85,2.222.5,6,1.391,8.5,2.005,14.8,3.635,29.865,6.562,39.3,7.635,3.2.364,6.076,1.108,6.415,1.66,1.529,2.485-46.615-1.686-60.715-5.259-2.5-.634-5.944-1.385-7.75-1.691-1.8-.305-3.495-.952-3.8-1.45-.306-.5-1.35-.9-2.35-.9-2.9,0-32.1-12.462-32.1-13.7,0-.576,1.5-.28,8.5,1.68h0ZM819.296,1032.31c-.442.387-4.6,1.214-9.3,1.85-4.7.636-10.065,1.401-12,1.712-27.126,4.356-68.8,6.896-112,6.824-40.5-.067-62.466-1.715-98-7.355-3.6-.571-8.842-1.321-11.75-1.682-2.9-.359-5.451-.963-5.7-1.35-.248-.385,55.75-.7,124.55-.7s124.64.315,124.2.7h0ZM431.196,1066.266c2.575,1.021,13.9,3.949,27.3,7.057,5,1.16,10.556,2.481,12.5,2.973,3.859.976,6.8,1.597,15,3.163,3,.573,7.773,1.486,10.5,2.008,19.089,3.655,48.1,7.747,70,9.872,5.5.534,14.275,1.44,19.5,2.015,25.2,2.77,47.367,4.589,66.5,5.457,6.05.274,18.2.949,27,1.499,8.8.55,17.26,1,18.8,1,1.5,0,2.577.371,2.32.8-.561.935-16.82,2.689-36.12,3.896-18.8,1.177-68.421.859-85.5-.548-30.9-2.544-35.605-2.979-44-4.071-17.2-2.236-23.307-3.235-37-6.052-2.5-.514-6.056-1.19-8-1.52-5.1-.866-17.757-4.085-21.5-5.467-1.114-.411-5.1-1.731-9-2.98-8.7-2.785-23.756-10.966-28.7-15.594-4.911-4.597-4.8-5.572.4-3.51h0ZM949.396,1130.188c-1.236,1.099-20.8,8.656-38.7,14.949-13.2,4.641-15.42,5.393-18.5,6.266-1.768.502-4.9,1.391-7,1.989-21.688,6.172-48.5,11.347-72.2,13.936-30.966,3.382-48.2,4.08-90,3.646-42.4-.44-45.709-.581-64.3-2.744-10.2-1.187-13.94-2.92-6.3-2.92,2.466,0,7.8-.429,11.8-.95,4.039-.526,14-1.196,22.3-1.5,8.229-.302,22.9-1.001,32.5-1.55s22.24-1.226,28-1.5c5.8-.276,14.752-.948,20-1.5,5.2-.547,12.216-1.244,15.5-1.538,10-.897,23.609-2.331,32-3.37,4.424-.548,11.8-1.445,16.5-2.007,10.5-1.255,21.524-2.776,30-4.139,3.6-.579,9.177-1.456,12.5-1.966,10.333-1.586,20.9-3.556,31.7-5.911,10.6-2.311,13.461-2.963,17.3-3.945,2.222-.568,6-1.468,8.5-2.023,2.5-.556,6.278-1.656,8.5-2.477,4.3-1.588,11.454-2.126,9.9-.745h0ZM549.496,1226.506c10.463,1.898,16.1,2.745,32,4.808,22.304,2.893,24.2,3.102,55,6.045,6.072.58,22.2,1.365,36,1.751,13.8.386,25.515,1.036,26.15,1.45.634.413,17.35.769,37.25.793,33.4.04,43.131.758,31.4,2.319-2.674.356-7.9,1.108-11.8,1.698-16.859,2.553-31.5,3.25-69,3.289-37.4.039-55.51-.768-76.5-3.406-4.1-.515-9.767-1.192-12.5-1.493-2.8-.308-5.88-.946-7-1.45-1.086-.489-3.6-1.124-5.5-1.389-6.6-.922-12.491-2.292-17-3.953-2.5-.921-5.278-1.658-6.25-1.658-1,0-2.5-.407-3.5-.95-.969-.526-4.65-1.921-8.25-3.127-8.7-2.914-15-5.905-15-7.123,0-.571.75-.7,1.75-.3.97.388,6.65,1.589,12.75,2.696h0Z"/>
      <path d="M130.577,384.61c-8.155,10.683,4.619,23.06,15.319,14.843,1.818-1.396,2.521-3.093,2.9-6.993.466-4.8.279-5.354-2.75-8.15-2.68-2.474-4.1-3-8.1-3-4.3,0-5.136.374-7.369,3.3h0Z"/>
      <path d="M57.753,388.01c-.711,1.437,1.074,45.9,2.175,54.2,3.956,29.8,13.966,55.147,33.134,83.9,10.333,15.5,11.15,17.658,5.033,13.31-4.911-3.492-21.5-11.662-32.6-16.056-6.1-2.415-11.535-4.77-12.2-5.288-2.552-1.984-3.177.333-1.089,4.033,1.16,2.056,3.21,5.7,4.611,8.2,6.488,11.577,10.925,17,28.637,35,17.613,17.9,36.472,41.116,30.341,37.351-1.051-.646-8.1-6.071-13.5-10.391-.7-.56-1.45-.96-1.8-.96-.333,0-3.8-2.151-7.8-4.841-5.387-3.622-32.1-17.679-39.9-20.996-1.572-.668-.757,2.537,2.198,8.637,1.647,3.4,3.003,6.426,3.003,6.7,0,1.014,10.365,16.1,14.428,21,7.869,9.49,10.7,12.6,25.029,27.5,10.964,11.4,26.543,29.772,26.543,31.3,0,.554-.5.514-1.3-.104-10.2-7.876-14.826-11.196-15.6-11.196-.54,0-1.04-.3-1.25-.75-.191-.409-2.85-2.299-5.85-4.157-5.202-3.223-6.8-4.161-15.5-9.104-1.96-1.114-5.15-2.935-7.25-4.139-2.071-1.188-8.45-4.589-14.25-7.6-5.8-3.01-13.32-7.007-16.8-8.928-6.3-3.479-8.978-3.672-7.239-.521.52.942,2.116,4.6,3.577,8.2,13.436,33.1,33.698,65.623,57.939,93,6.468,7.305,35.523,36.061,43.023,42.58,17.331,15.066,29.3,24.921,49.9,41.089,3.2,2.511,6.586,4.677,7.4,4.733,2.01.137,7.774-9.802,18.79-32.402,9.359-19.2,9.294-19.056,12.402-27.5,1.215-3.3,2.613-6.787,3.108-7.75.508-.987.9-2.6.9-3.7s.392-2.19.9-2.5c.491-.3,1.15-1.8,1.45-3.3.306-1.528,1.041-4.75,1.656-7.25,5.529-22.5,7.47-38.238,7.401-60-.068-21.7-2.161-41.344-5.785-54.3-.895-3.2-1.622-6.697-1.622-7.8,0-2.434-1.913-2.1-3.431.6-.594,1.056-3.17,5.1-5.796,9.1-6.875,10.471-9.436,15.1-15.158,27.4-3.835,8.243-9.771,27.7-11.654,38.2-.466,2.6-1.113,5.213-1.411,5.7-1.114,1.824-2.446,23.7-4.103,67.4-.409,10.8-1.063,19.7-1.447,19.7s-1.276-1.9-1.973-4.2c-1.879-6.2-3.153-10.027-4.097-12.3-.463-1.114-1.76-5.1-2.93-9-1.17-3.9-2.521-8.351-3.05-10.05-.529-1.7-.95-4.378-.95-6.05,0-1.7-.52-3.52-1.2-4.2-1.641-1.641-1.569-30.7.095-38.3,3.928-17.945,4.139-18.7,10.891-38.9,3.042-9.1,5.851-17.845,6.265-19.5.409-1.636,1.405-5.5,2.192-8.5,4.71-17.963,4.622-37.8-.255-58-.604-2.5-1.331-5.944-1.637-7.75-.305-1.8-1.13-3.25-1.85-3.25-2.836,0-17.724,34.1-22.616,51.8-.478,1.73-1.371,4.9-1.944,6.9-2.668,9.316-5.793,23.4-7.831,35.3-1.164,6.8-2.052,9.135-3.21,8.44-.503-.302-.9-2.04-.9-3.94s-.397-3.643-.9-3.95c-.497-.304-1.135-2.25-1.426-4.35-2.424-17.5-2.579-20.27-1.66-29.7,1.136-11.656,1.852-16.1,6.122-38,3.588-18.4,4.76-36.98,2.872-45.5-2.993-13.5-8.124-28-9.908-28-2.064,0-14.298,29-18.056,42.8-.626,2.3-1.506,4.2-1.944,4.2-.433,0-1.121-1.95-1.5-4.25-.392-2.38-1.11-6.45-1.633-9.25-.965-5.175-2.482-16.5-3.951-29.5-2.101-18.6-7.544-34.527-17.94-52.5-10.238-17.7-35.126-45.858-49.776-56.316-3.4-2.427-3.982-2.618-4.543-1.484h0Z"/>
      <path d="M837.201,417.61c-4.707,4.823-14.906,10.371-25.206,13.713-6.5,2.109-10.087,3.49-13.3,5.123-.9.457-2.312.873-3,.883-2.034.03-14.197,9.681-19.512,15.481-5.95,6.493-14.708,19.7-18.9,28.5-5.716,12-9.288,20.038-9.288,20.9,0,.496-.682,2.2-1.521,3.8-2.741,5.227-2.579,5.3,11.721,5.3,7.234,0,19.55-.452,27.25-1,7.727-.55,21.25-1.499,30.05-2.109,23.2-1.609,49.736-4.37,66-6.869,3.343-.514,9.1-1.369,13-1.932,7.7-1.111,16.607-2.626,23.5-3.995,2.447-.486,7.1-1.368,10.2-1.932,10-1.821,30.892-7.208,35.3-9.103,1.114-.479,5.1-1.889,9-3.184,9.4-3.122,25.157-11.208,29.6-15.19,11.121-9.967,2.7-20.522-23.1-28.954-5.8-1.896-13.186-3.969-16.5-4.631-3.3-.66-7.575-1.615-9.5-2.121-4.024-1.059-8.8-1.915-14.5-2.599-2.2-.264-4.9-.885-6-1.38-1.111-.5-4-1.144-6.5-1.45-2.475-.302-7.2-1.018-10.5-1.59-13.7-2.374-26.787-4.366-35.5-5.405-3.046-.363-8.4-1.079-12-1.605-3.621-.529-9.6-1.172-13.5-1.45-3.9-.278-8.329-.744-10-1.05-2.591-.475-3.586.05-7.294,3.85h0Z"/>
      <path d="M686.496,433.328c-6.803,2.982-33.007,30.883-43.186,45.983-3.842,5.7-16.314,29.245-16.314,30.8,0,1.581,5.5,1.5,6.757-.1.515-.656,2.696-4.6,4.809-8.7,6.437-12.486,14.123-24.4,24.194-37.5,4.843-6.3,17.257-20.517,22.44-25.7,5.9-5.9,6.177-6.92,1.3-4.783h0Z"/>
      <path d="M164.996,443.61c0,.33,4.35,4.792,9.65,9.9,5.288,5.096,16.25,15.81,24.25,23.7,16.4,16.175,24.838,23.261,33.6,28.213,7.723,4.365,11.2,5.936,24.5,11.068,10,3.859,18.831,8.658,24.6,13.37,6.3,5.146,8.035,4.487,4.611-1.751-.996-1.815-2.846-6-4.111-9.3s-2.671-6.9-3.124-8c-.856-2.08-1.706-5.7-2.581-11-.281-1.7-.885-3.867-1.395-5-.489-1.086-1.174-3.6-1.5-5.5s-.854-4.871-1.157-6.5c-.961-5.178-6.943-9.207-26.343-17.738-14.709-6.468-30.4-11.413-46.5-14.655-3.3-.664-7.575-1.613-9.5-2.108-1.9-.489-4.871-1.129-6.5-1.4-1.68-.28-5.2-.983-8-1.597-9.5-2.084-10.5-2.246-10.5-1.703h0Z"/>
      <path d="M700.446,447.16c-1.067,1.012-3.988,4.25-6.45,7.15-2.462,2.9-5.224,6.025-6.1,6.9-2.011,2.011-13.868,17.6-16.201,21.3-4.224,6.7-15.699,28.847-15.699,30.3,0,.271,1.1.5,2.4.5,3.185,0,6.448-3.6,10.607-11.7,3.397-6.616,8.329-15.7,12.924-23.8,1.248-2.2,3.124-4.922,4.169-6.05,1.02-1.1,1.9-2.328,1.9-2.65,0-.874,14-20.695,15.1-21.378,1.1-.683,1.172-2.422.1-2.422-.451,0-1.65.807-2.75,1.85h0Z"/>
      <path d="M1371.496,522.429c-3.206,2.822-3.5,3.531-3.5,8.431,0,4.2.516,5.952,2.4,8.15,2.105,2.456,3.1,2.8,8.1,2.8,5.2,0,5.949-.298,8.538-3.4,4.758-5.7,4.676-11.269-.238-16.149-4.243-4.214-10.4-4.146-15.3.167h0Z"/>
      <path d="M312.796,601.592c-14.051,8.25-11.8,29.733,3.6,34.356,8.034,2.412,17.38-2.337,21.524-10.937,2.594-5.383,2.634-8.3.191-14-4.286-10-16.551-14.563-25.314-9.418h0Z"/>
      <path d="M1059.125,604.31c-6.761,7.066-3.73,18.275,5.57,20.6,4.286,1.071,10.647-2.7,12.987-7.7,1.826-3.9,1.88-4.635.585-7.9-2.141-5.398-5.872-8-11.472-8-4,0-5.278.5-7.67,3h0Z"/>
      <path d="M1363.996,623.51c0,28.6-11.16,57.443-28.6,73.919-7.561,7.143-20.2,14.575-38.9,22.874-18,7.988-27.504,13.852-38.5,23.751-13.695,12.33-22.973,26.356-27.952,42.256-1.284,4.1-2.73,8.542-3.19,9.8-1.969,5.381-1.359,5.985,6.941,6.87,11.7,1.247,34.107.994,39-.439,2.3-.674,6.1-1.781,8.4-2.446,17.143-4.962,40.654-23.084,54.86-42.284,2.442-3.3,4.777-6.158,5.189-6.35.45-.21.75-.69.75-1.2,0-.468,1.8-3.55,4-6.85,2.2-3.3,4-6.428,4-6.95,0-.57.28-1.078.7-1.269,2.416-1.101,12.655-24.281,16.954-38.381,6.006-19.7,6.589-23.842,6.048-43-.466-16.5-1.291-23.711-3.659-32-.629-2.2-1.48-5.35-1.893-7-.425-1.7-1.487-3.13-2.45-3.3-1.534-.271-1.7.9-1.7,12h0Z"/>
      <path d="M1326.996,632.618c-20.9,14.255-24.665,17.262-36.554,29.192-10.264,10.3-17.607,19.407-22.172,27.5-1.106,1.96-3.272,5.7-4.924,8.5-1.652,2.8-3.742,6.76-4.75,9-.979,2.176-3.191,6.85-4.85,10.25s-2.822,6.501-2.55,6.8c.269.296,2.3-1.064,4.4-2.947,3.573-3.203,13.9-8.712,40.4-21.55,12.3-5.959,19.366-9.93,19.846-11.153.206-.525.854-.9,1.553-.9,1.616,0,11.666-10.5,15.315-16,1.651-2.488,4.461-8.3,6.285-13,3.095-7.973,3.306-9.3,3.4-21.4.06-7.8-.295-13.019-.9-13.2-.548-.165-7.1,3.86-14.5,8.908h0Z"/>
      <path d="M7.296,660.845c-6.2,2.614-9.312,11.134-5.869,16.065,2.203,3.155,8.069,5.617,11.569,4.857,3.4-.739,9-6.997,9-10.057,0-2.4-2.521-7.758-4.3-9.139-2.983-2.317-7.3-3.033-10.4-1.726h0Z"/>
      <path d="M23.114,750.11c-1.413,9.7-1.03,32.225.701,41.2,1.292,6.7,6.073,22.101,7.264,23.4.524.572.917,1.6.917,2.4,0,1.857,9.431,20.5,13.203,26.1,18.66,27.7,39.924,48.628,60.797,59.834,13.5,7.248,29.922,11.094,42.2,9.882,13.1-1.293,21.165-2.339,28-3.631,6.6-1.247,6.781-1.362,6.15-3.885-.35-1.4-1.042-3.038-1.5-3.55-.458-.512-.85-1.55-.85-2.25,0-2.965-8.91-19.6-13.016-24.3-1.196-1.369-3.767-4.4-5.684-6.7-1.918-2.301-6.8-6.723-10.8-9.781-7.4-5.657-25.511-15.519-28.5-15.519-.9,0-2.016-.394-2.55-.9-.525-.497-5.65-2.332-11.45-4.099-24.1-7.342-32.987-11.487-44-20.519-14.959-12.269-26.319-31.682-32.76-55.982-.92-3.471-1.656-7-3.819-18.3-.23-1.2-1.012-2.2-1.721-2.2-.857,0-1.737,3-2.582,8.8h0Z"/>
      <path d="M50.383,749.41c-.916,1.497,1.477,15.3,3.883,22.4,2.847,8.4,5.314,13.033,10.437,19.6,9.185,11.776,21.392,19.06,43.292,25.835,22,6.805,32.258,9.968,36.5,11.253,2.2.667,5.035,1.86,6.3,2.652,5.914,3.703,3.2-2.24-7.6-16.64-6.674-8.899-17.4-20.572-26.9-29.275-5.7-5.222-17.575-13.925-19-13.925-.7,0-1.3-.369-1.3-.8s-1.7-1.71-3.7-2.781c-9.8-5.246-20.678-10.524-27.8-13.487-1.113-.463-4.55-1.941-7.75-3.332-3.7-1.609-5.968-2.144-6.362-1.5h0Z"/>
      <path d="M1194.996,765.46c-2.5.472-6.367,1.119-8.7,1.455-6.345.915-6.785,1.895-5.466,12.195,2.371,18.514.98,68.3-2.493,89.2-4.851,29.2-12.836,59.084-20.52,76.8-.998,2.3-1.822,4.426-1.822,4.7,0,1.381-9,21.6-14.6,32.8-12.514,25.029-25.197,45.4-43.89,70.5-5.139,6.9-9.858,13.53-10.534,14.8-1.544,2.9-.607,5.4,2.025,5.4,1.1,0,2.765.389,3.7.864,2.714,1.38,6.5,2.91,10.7,4.323,3.6,1.212,4.008,1.147,5.3-.838.774-1.188,5.512-7.25,10.591-13.55,16.93-21,25.276-33.185,36.167-52.8,4.775-8.6,20.542-40.301,20.542-41.3,0-.333,1.103-3,2.48-6,2.853-6.211,11.701-32.4,14.765-43.7,10.628-39.201,14.136-74.6,11.744-118.5-1.281-23.5-2.879-36.678-4.489-37-.555-.111-3,.178-5.5.65h0Z"/>
      <path d="M1377.496,800.164c-3.469,2.402-7.7,4.447-20,9.668-7.389,3.136-20.6,7.657-33.5,11.465-4.1,1.21-9.721,3.075-12.4,4.114-2.7,1.047-5.439,1.9-6.1,1.9-.667,0-3.6.922-6.6,2.073-4.87,1.87-7.9,3.095-18.9,7.642-6.4,2.646-17.433,8.464-23,12.129-7.2,4.74-20.976,18.607-23.5,23.655-1.1,2.2-2.556,4.585-3.235,5.3-3.247,3.418-.365,4.223,4.235,1.183,1.7-1.124,3.542-1.983,4.25-1.983.677,0,3.45-.968,6.05-2.112,13.741-6.046,22.8-8.917,40.5-12.835,14.1-3.121,17.004-3.858,30.2-7.662,12-3.459,13.5-3.769,13.5-2.792,0,.502-1.35,1.498-3.05,2.25-1.684.746-6.05,2.984-9.75,5-3.685,2.007-11.2,5.607-16.7,8-5.5,2.393-11.8,5.16-14,6.15s-6.7,2.82-10,4.067c-5.481,2.07-11,4.424-20.5,8.742-7.5,3.409-20.885,13.349-27.726,20.591-3.968,4.2-7.274,8.132-7.274,8.65,0,.507,1.05.973,2.25,1,1.242.028,9.8.297,19.1.6,11.4.372,18.37.173,21.55-.614,16.3-4.037,17.047-4.296,31.2-10.8,20.1-9.237,46.277-31.313,58.858-49.636.824-1.2,1.742-2.322,2.142-2.618,1.845-1.365,15.381-23.182,18.787-30.282,5.614-11.7,9.738-20.88,10.556-23.5.982-3.143-1.844-2.877-6.944.654h0Z"/>
      <path d="M196.265,821.01c-.736,1.94.564,34.1,1.77,43.8,2.313,18.6,3.575,25.735,7.779,44,4.466,19.4,12.972,44.794,21.102,63,1.474,3.3,3.309,7.575,4.079,9.5,1.438,3.595,8.614,17.7,14.753,29,4.735,8.716,20.551,32.8,27.317,41.6,20.684,26.9,22.775,29.072,25.529,26.512,1.301-1.209,12.6-5.112,14.8-5.112.9,0,1.97-.706,2.273-1.5.557-1.458-1.926-5.3-10.664-16.5-11.941-15.305-30.472-44.9-43.205-69-3.804-7.2-17.805-39.44-17.805-41,0-.529-.453-1.8-.963-2.7-1.018-1.797-7.661-21.3-9.129-26.8-.844-3.161-2.265-8.2-4.006-14.2-.597-2.057-1.515-5.75-2.002-8.05-.498-2.351-1.364-6.35-1.939-8.95-2.022-9.144-4.4-25.2-5.969-40.3-.603-5.8-1.405-13.589-1.791-17.4l-.7-6.9-10.35-.2c-8.1-.156-10.465.104-10.881,1.2h0Z"/>
      <path d="M49.474,939.41c-1.252,2.01,10.176,17.4,21.461,28.9,11.907,12.133,24.66,22.733,38.26,31.8,4.3,2.867,7.98,5.2,8.2,5.2.218,0,3.5,1.886,7.2,4.137,9.223,5.611,26.8,13.017,37.9,15.969,8.496,2.26,10.5,2.388,35.8,2.294,17.2-.064,27.176-.476,27.85-1.15.734-.734-.8-2.283-5.1-5.15-3.4-2.267-6.307-4.1-6.5-4.1s-3.2-1.706-6.7-3.8c-3.5-2.095-7.921-4.523-9.85-5.41-15.156-6.973-20.8-9.157-38-14.703-10.7-3.45-21.982-7.185-25-8.277-12.3-4.45-39-18.902-39-21.11,0-.436.5-.491,1.1-.121,1.445.892,6.8,2.202,14.4,3.52,6.69,1.161,13.1,2.375,20.2,3.826,9,1.839,14.8,2.97,20.3,3.958,11,1.976,28.736,7.024,35.8,10.19,2.4,1.075,5.073,1.927,6.05,1.927,1,0,2.179.399,2.75.931,1.4,1.304,13.264,5.298,14.5,4.882,1.575-.53-9.8-13.536-17.5-20.01-6.701-5.634-22.7-14.319-31.1-16.882-2.2-.671-4.9-1.553-6-1.959-3.721-1.373-10-2.838-15-3.5-2.8-.371-7.2-1.058-10-1.562-2.733-.492-8.4-1.331-12.5-1.85-4.1-.519-10.9-1.449-15-2.05-4.105-.602-11.8-1.514-17-2.016-14-1.349-25.255-2.701-27.5-3.302-4.5-1.205-9.454-1.493-10.021-.583h0Z"/>
      <path d="M1331.496,940.949c-6.1.755-15.454,1.816-21,2.382-17.1,1.745-35.54,4.229-44.5,5.995-3,.591-7.545,1.47-10,1.934-2.5.472-6.167,1.339-8.25,1.95-2.1.616-5.202,1.472-7.05,1.945-11,2.818-28.921,13.455-37.832,22.455-5.446,5.5-12.301,14.567-11.568,15.3.333.333,3.4-.746,6.9-2.428,12.082-5.808,26.2-10.491,48.8-16.189,1.925-.485,5.3-1.162,7.5-1.505,3.875-.603,7.7-1.383,17-3.469,2.5-.561,6.5-1.454,9-2.009s6.389-1.422,8.75-1.95c2.361-.528,6.25-1.441,8.75-2.055,13.836-3.397,13.2-2.095-2.8,5.737-16.695,8.172-28.8,13.051-50.2,20.236-29.5,9.905-46.095,17.954-60.7,29.442-2.9,2.281-6.328,4.886-7.75,5.89-1.4.988-2.55,2.116-2.55,2.5,0,.628,24.1,1.699,37,1.645,5.6-.023,15.228-1.194,20.2-2.456,14.6-3.705,19.186-5.363,33.7-12.178,9.2-4.32,30.452-17.399,34.2-21.048.76-.74,3-2.463,4.9-3.769,3.843-2.642,5.8-4.228,13.4-10.858,9.4-8.201,18.721-17.604,23.923-24.135,2.867-3.6,5.445-6.742,5.777-7.042,2-1.806,4.779-6.344,4.322-7.058-.73-1.143-6.422-.932-19.922.739h0Z"/>
      <path d="M13.596,1022.71l-7.9,7.4,2.091,2.9c2.933,4.069,15.809,16.483,21.709,20.931,12,9.046,25,16.49,39,22.331,4.4,1.836,9.44,3.96,11.2,4.72,6.787,2.931,24.6,8.172,35.3,10.385,27.3,5.646,69.1,6.174,102.5,1.296,18.82-2.749,20.4-3.04,39.7-7.311,2.4-.531,5.626-1.217,7.3-1.552,5.3-1.06,10.5-2.793,10.5-3.5,0-.7-9.9-1.441-33-2.468-26.6-1.184-57.06-3.451-68.5-5.099-1.64-.236-6.4-.886-10.5-1.432-7.171-.956-11.5-1.755-21.3-3.928-11-2.44-16.7-3.862-24.7-6.165-1.9-.547-5.1-1.386-7-1.836-7.517-1.78-36.7-13.365-47.8-18.974-7.7-3.891-22.978-13.224-26.7-16.309-5.6-4.643-11.591-8.788-12.7-8.788-.708,0-4.9,3.372-9.2,7.4h0Z"/>
      <path d="M1368.996,1021.396c-26.278,18.504-62.8,34.659-96.8,42.819-10.7,2.568-13.514,3.096-16.5,3.096-1.8,0-3.732.409-4.25.9-.528.5-2.95,1.167-5.45,1.5-2.507.334-7.6,1.064-11.5,1.647-22.278,3.332-34.2,4.402-67,6.013-36.9,1.812-39.5,2.039-39.5,3.44,0,.791,2.25,1.75,5.75,2.45,3.2.64,7.746,1.593,10.25,2.15,2.52.56,6.7,1.374,9.5,1.85,2.769.471,7.9,1.383,11.5,2.046,35.6,6.547,79.4,8.75,100.5,5.055,3.323-.582,8.9-1.519,12.5-2.101s8.062-1.452,10-1.95c1.96-.504,5.7-1.424,8.5-2.09,7-1.667,17.424-4.845,21-6.403,1.64-.714,6.4-2.763,10.5-4.518,14-5.995,34.009-16.6,36.016-19.088.272-.338,1.184-.99,2.084-1.491,5.2-2.897,26.118-22.094,28.121-25.809.939-1.742.129-2.879-6.271-8.8-4-3.701-8.056-6.777-8.9-6.75-.857.028-5.35,2.726-10.05,6.035h0Z"/>
      <path d="M348.496,1097.401c-6.611.871-15.4,2.388-23,3.969-2.8.583-6.98,1.419-9.5,1.9-5.333,1.019-17.8,3.672-23.8,5.065-2.323.539-6.3,1.449-8.9,2.036-5.419,1.224-10.1,2.354-15.8,3.814-2.222.569-8,1.98-13,3.175-5,1.194-10.111,2.506-11.5,2.95-1.389.444-4.5,1.354-7,2.048-17.9,4.962-31.22,8.996-43.5,13.172-6.6,2.244-13.778,4.913-15.95,5.931-2.2,1.03-4.349,1.85-4.85,1.85-1.626,0-29.3,13.814-38.2,19.069-22,12.988-38.441,28.789-46.333,44.531-6.125,12.217-6.349,14.8-5.902,67.9.441,52.3.351,51.422,6.627,64.7,8.545,18.077,27.908,37.278,51.408,50.978,19.702,11.485,44,22.636,74.7,34.281,8.1,3.072,51.777,17.374,58,18.992,1.417.368,3.8,1.026,5.5,1.518,5,1.447,18.779,5.123,22.5,6.004,1.938.459,6.4,1.564,10,2.478,3.6.914,8.508,2.096,11,2.65,2.5.556,6.056,1.4,8,1.9,1.925.495,6.2,1.418,9.5,2.05,3.3.632,7.8,1.519,10,1.971,4.383.899,13.3,2.649,20.7,4.063,2.6.497,6.977,1.352,9.55,1.867,2.646.529,7.85,1.437,11.75,2.05s9.214,1.505,12,2.015c9.926,1.817,29.9,4.8,46.5,6.945,3.553.459,9.9,1.335,14,1.932,12.084,1.759,30.3,3.886,52,6.072,13,1.309,28.388,2.846,35,3.496,3.025.297,18.1,1.328,33.5,2.291,23.164,1.448,43.2,1.75,116,1.75,48.4,0,90.7-.315,94-.7,3.3-.385,16.8-1.195,30-1.8,13.2-.605,26.25-1.505,29-2,2.737-.493,9.3-1.146,14.5-1.444,9.318-.534,20.2-1.58,37-3.556,4.7-.553,12.3-1.447,17-2,4.7-.553,11.965-1.447,16.25-2,4.3-.555,10.977-1.423,15-1.95,4-.524,10.164-1.432,13.75-2.026,6.24-1.033,13.1-2.148,25-4.064,8.944-1.44,23.6-4.028,33.5-5.916,3.3-.629,8.475-1.594,11.5-2.144,3-.545,7.659-1.432,10.25-1.95,2.573-.515,6.95-1.377,9.55-1.881,4.077-.79,9.1-1.919,27.2-6.109,8.5-1.968,27.601-6.86,35.5-9.091,22.5-6.357,57.096-17.572,76-24.636,34.4-12.855,74.606-33.215,90.5-45.828,16.3-12.935,29.817-31.03,33.917-45.405.713-2.5,1.682-5.522,2.181-6.8,1.139-2.92,1.208-100.4.073-103.4-.479-1.265-1.409-4.1-2.067-6.3-5.745-19.207-24.104-37.817-54.004-54.741-10.051-5.689-27-13.66-37.6-17.682-3.3-1.252-6.9-2.652-8-3.112-3.798-1.586-23.1-7.661-41.5-13.061-10.4-3.052-12.21-3.55-17.5-4.812-2.8-.668-6.76-1.65-9-2.232-6.2-1.611-10.654-2.693-15.5-3.765-2.5-.553-5.611-1.262-7-1.596-1.381-.331-7.2-1.518-13-2.65-5.8-1.132-12.514-2.474-15-2.996-9.7-2.04-20.123-4.1-29.5-5.831-2.727-.503-7.5-1.428-10.5-2.034-11.6-2.343-14.669-2.36-16.257-.089-2.307,3.3-8.435,9.744-10.943,11.507-2.981,2.095-1.4,3.643,4.9,4.799,13.4,2.457,22.826,4.274,29.8,5.742,2.727.574,7.5,1.507,10.5,2.053s7.546,1.455,10,2c2.5.556,6.5,1.422,9,1.95s6.278,1.417,8.5,2c2.222.583,6,1.517,8.5,2.1,2.5.583,6.278,1.494,8.5,2.05,2.2.55,5.8,1.39,8,1.868,3.727.808,5.9,1.34,16.3,3.99,2.035.518,5.5,1.438,7.7,2.043,2.2.605,5.125,1.347,6.5,1.65,1.4.308,3.38.902,4.5,1.35,1.105.442,6.7,2.254,12.5,4.049,10.058,3.112,14,4.446,26.7,9.034q7.8,2.818,24.8,10.975c24.1,11.564,41.825,24.433,49.368,35.843,6.479,9.8,8.132,14.536,8.132,23.3,0,6-.53,8.2-3.424,14.2-3.279,6.8-14.619,20.783-15.876,19.576-.336-.323.48-2.776,1.855-5.576,4.467-9.1,5.532-24.064,2.291-32.2-3.354-8.422-4.045-9.4-12.845-18.2-7.3-7.3-10.54-10-12-10-.6,0-1-.3-1-.75,0-.415-1.45-1.375-3.25-2.15-1.8-.775-3.48-1.668-3.766-2-1.926-2.24-23.784-12.801-38.984-18.834-21-8.336-61.511-21.256-77.5-24.716-1.629-.352-4.6-1.061-6.5-1.549-1.894-.487-5.45-1.382-7.75-1.95-2.3-.568-6.2-1.532-8.5-2.1-2.361-.583-6.25-1.45-8.75-1.95s-6.5-1.326-9-1.859c-14.8-3.154-22.873-4.725-31.5-6.131-13.1-2.135-17.267-2.915-27.9-5.224l-5-1.086-27.2,27.9c-16.184,16.6-26.734,28.143-26.05,28.5.639.333,5.15,1.162,10.15,1.864,23.1,3.244,40.332,6.109,60.5,10.059,3,.588,7.773,1.486,10.5,1.977,2.8.504,7.2,1.362,10,1.95,2.8.588,7.2,1.476,10,2.019,11.769,2.281,24,4.956,36.5,7.983,1.913.463,6.9,1.799,11,2.948,4.1,1.148,10.673,2.957,14.5,3.99,7.7,2.079,39.809,12.592,43,14.078,1.1.512,3.8,1.516,6,2.23,5.8,1.883,23.107,10.409,28.1,13.844,2.4,1.651,4.565,2.958,4.9,2.958,1.014,0,14.771,11.5,17.346,14.5,3.433,4,8.154,12.337,8.154,14.4,0,2-2.918,5.1-4.8,5.1-.7,0-1.2.312-1.2.75,0,.417-1.2,1.312-2.7,2.016-3.062,1.435-3.919.734-4.968-4.066-.922-4.219-13.232-16.756-22.532-22.946-9.931-6.611-17.1-10.344-28.3-14.735-10.6-4.156-12.903-4.916-13.4-4.419-.604.604-.7.529,12.7,9.973,17.5,12.333,32.116,33.413,31.012,44.727-.272,2.793-1.012,3.537-5.812,5.85-3,1.445-6.909,2.945-8.6,3.3l-3.1.65-.1-7.4c-.198-14.641-9.8-28.826-28.2-41.659-1.9-1.325-3.73-2.715-4.003-3.041-2.425-2.893-28.397-16.693-37.697-20.03-13.8-4.952-25.57-8.529-39.3-11.943-10-2.486-18.667-4.927-21.8-6.138-1.3-.503-3.257-.868-4.5-.839q-2.2.05-.2,1.55c1.12.84,3.1,1.76,4.5,2.091,2.362.558,5.7,1.914,15.7,6.378,7.1,3.169,13.043,5.81,18,7.997,8.261,3.646,13.4,6.241,24.1,12.171,5.7,3.159,10.626,5.763,10.9,5.763.548,0,9.48,6,10.272,6.9.29.33,2.328,1.823,4.528,3.318,10.2,6.931,24.068,23.643,25.958,31.282.407,1.647.968,5.3,1.242,8.1.48,4.9.329,5.276-3.85,9.6-3.289,3.402-6.35,5.263-12.55,7.627-7.1,2.707-37.862,11.173-40.6,11.173-.56,0,1.059-2.2,3.679-5,7.408-7.916,9.952-14.5,10.044-26,.071-8.8-.176-10.016-3.345-16.5-7.121-14.568-27.578-30.918-51.078-40.825-1.945-.82-5.5-2.32-8-3.375-2.46-1.039-7.9-2.92-12-4.15s-8.883-2.681-10.55-3.2c-1.7-.529-3.802-.95-4.75-.95-.9,0-2.5-.411-3.4-.873-1.664-.854-4.1-1.552-14.5-4.152-2.4-.6-5.648-1.495-7.35-2.025-1.7-.53-4.267-.95-5.8-.95-1.5,0-3.523-.386-4.45-.85-.927-.464-3.95-1.191-6.65-1.6-4.5-.682-4.832-.605-3.65.85.731.9,1.956,1.6,2.8,1.6,1.356,0,12,3.188,16.8,5.032,1.1.423,4.7,1.758,8,2.968s6.9,2.583,8,3.05c1.087.462,4.1,1.523,6.6,2.324,5.094,1.633,19,8.227,25.9,12.281,2.5,1.469,5.967,3.468,7.8,4.496,5.299,2.974,8.2,4.905,15.7,10.451,25.2,18.635,30.943,39.884,15.08,55.797-4.885,4.9-7.636,7.08-12.38,9.811-9.4,5.411-19.192,9.563-28.2,11.958-1.9.505-5.1,1.411-7,1.981-1.925.577-5.3,1.432-7.5,1.9-2.222.472-6,1.317-8.5,1.9-2.52.588-6.7,1.512-9.5,2.1-2.8.588-6.98,1.472-9.5,2.009-7.408,1.578-21.7,4.001-35.5,6.018-3.9.57-9.879,1.466-13.5,2.023-3.594.553-10.3,1.402-15,1.9-4.7.498-9.394,1.124-10.5,1.4-1.109.277-6.9.99-13,1.6-6.1.61-12.782,1.501-15,2-2.2.495-11.2,1.62-20,2.5-14.633,1.463-22.5,2.083-56.5,4.45-79.7,5.548-218.395,4.593-289.5-1.993-32.4-3.001-33.473-3.109-59-5.96-9.936-1.109-25-3.19-43.5-6.007-3.575-.544-10.1-1.424-14.5-1.954-9.982-1.203-23.9-3.628-34-5.926-2.24-.51-6.2-1.394-9-2.01-2.8-.616-6.76-1.562-9-2.15-2.2-.577-5.575-1.411-7.5-1.851-7.89-1.806-20.1-6.45-30.7-11.677-8.5-4.191-12.743-7.014-17.6-11.71-7.767-7.51-11.7-15.312-11.7-23.212,0-8.927,7.7-22.617,17.7-31.47,12.417-10.992,38.4-25.678,58.3-32.951,1.9-.694,4.414-1.645,5.5-2.079,1.086-.434,3.6-1.354,5.5-2.013,4.2-1.456,7.945-2.96,10.3-4.137.9-.45,2.406-.85,3.2-.85.8,0,1.5-.513,1.5-1.1,0-.72-.95-.841-2.75-.35-1.535.419-4.65,1.13-7.05,1.61-9.3,1.86-17.823,3.878-24.7,5.848-5.1,1.461-11.224,2.98-14.8,3.671-1.5.29-2.944.922-3.25,1.422-.303.495-1.45.9-2.55.9-3.984,0-31.6,13.533-39.3,19.259-10.1,7.51-19.507,17.715-23.178,25.141-3.855,7.8-5.905,17.83-4.905,24,.988,6.1,5.835,15.499,10.879,21.1,2.882,3.2,4.161,5.342,3.553,5.95-.617.617-1.65.53-2.95-.25-1.061-.637-3.15-1.2-4.45-1.2s-2.708-.422-3-.9c-.305-.498-2-1.123-3.8-1.4-1.796-.276-4.95-.991-7.05-1.598-5.8-1.677-10.92-3.103-14.4-4.012-5-1.306-16.581-6.999-19.2-9.439-2.942-2.741-5.1-6.951-5.1-9.951,0-4.215,4.092-15,7.854-20.7,5.682-8.609,14.646-17.043,26.146-24.6,5.8-3.811,11.843-7.571,13.5-8.4,1.65-.825,5.7-3.097,9-5.05,3.3-1.953,8.025-4.523,10.5-5.713,9.3-4.47,22.201-10.237,22.9-10.237.758,0,8.4-3.389,11.4-5.056.9-.5,2.171-.944,2.7-.944.541,0,2.95-.849,5.25-1.85s5.397-2.343,6.75-2.924c4.383-1.883-.4-1.443-8.8.811-13.2,3.541-20.792,5.565-26.5,7.062-2.3.603-5.331,1.464-6.7,1.902-1.375.44-5.2,1.583-8.5,2.539-20.4,5.913-46.036,19.424-60.5,31.885-17.5,15.076-24,26.526-24,42.276,0,4.4-.704,5.029-3.8,3.396-.927-.489-3.2-1.453-5-2.121-10.106-3.75-10.759-8.475-3.296-23.875,4.577-9.445,20.096-24.478,36.296-35.16,2-1.319,3.332-2.807,2.9-3.24-1.018-1.018-14.3,4.373-28.6,11.607-7,3.541-21.871,13.84-26.7,18.491-4.7,4.527-10.8,14.469-10.8,17.602,0,.9-.437,1.6-1,1.6-.6,0-1-.38-1-.95,0-.522-.9-1.229-2-1.57-3.7-1.147-8-5.49-8-8.08,0-5.432,7.7-16.077,17.5-24.193,7.365-6.1,20.8-13.729,36.8-20.898,17.01-7.621,58.4-21.104,77.7-25.31,3-.654,7.091-1.583,9-2.044,8.4-2.029,19.746-4.476,27.5-5.929,3.3-.619,8.025-1.508,10.5-1.975,2.492-.471,7.4-1.363,11-2s8.062-1.552,10-2.05c1.925-.495,5.3-1.193,7.5-1.55,2.222-.361,6-1.038,8.5-1.522,21.9-4.245,32.64-5.892,49.3-7.558,3.9-.39,6.7-1.13,6.7-1.77,0-.605-12.16-13.35-27.05-28.35-22.434-22.6-27.511-27.242-29.75-27.202-2.5.045-4.9.456-17.4,2.982-2.651.536-7.15,1.44-10.05,2.02-2.9.58-7.04,1.274-9.25,1.55-2.2.275-4.9.905-6,1.4-1.086.489-3.6,1.135-5.5,1.415-3.973.584-11.3,2.004-18,3.488-2.471.547-6.8,1.43-9.6,1.957-6.071,1.143-16.5,3.662-25.4,6.134-3.594.998-10.3,2.814-15,4.061-17.906,4.751-38.1,11.336-66,21.523-6.3,2.3-36.278,16.416-36.998,17.422-.281.392-1.602,1.277-3.002,2.012-4.8,2.519-16.545,11.716-20.036,15.688-6.503,7.4-8.964,10.831-8.964,12.5,0,.9-.424,1.961-.9,2.254-1.088.67-2.076,6.046-2.746,14.946-.481,6.4.232,10.921,2.697,17.1,2.964,7.429,1.482,7.2-5.185-.8-7.664-9.197-10.197-15.4-10.29-25.2-.069-7.2.269-8.7,3.378-15,4.406-8.93,17.146-21.96,29.546-30.218,13.162-8.766,43.4-23.016,61-28.748,8.9-2.899,36.166-11.39,38.5-11.991,1.371-.353,9.5-2.459,18-4.664,16.5-4.28,40.224-10.099,48.5-11.894,2.8-.608,6.76-1.459,9-1.935,2.2-.467,6.7-1.39,10-2.05,3.3-.66,8.025-1.605,10.5-2.1,2.5-.5,8.5-1.611,13.5-2.5,5-.889,10.222-1.822,11.75-2.1,1.5-.273,2.75-.818,2.75-1.2,0-.379-1.95-2.558-4.25-4.75-2.3-2.192-5.695-5.725-7.4-7.7-1.726-2-3.76-3.582-4.5-3.5-.742.083-4.05.506-7.35.94h0ZM141.346,1304.81c2.1.927,5.055,2.064,6.5,2.5,1.465.442,6.45,2.231,11.15,4,4.657,1.753,13.7,4.941,20,7.05,6.3,2.109,14.665,4.955,18.5,6.294,6.283,2.193,15.6,5.008,25.5,7.703,1.944.529,7.5,2.107,12.5,3.549,20.2,5.827,22.632,6.492,27,7.386,2.193.448,10.1,2.377,17.5,4.268,7.4,1.891,16.211,4.015,19.5,4.7,3.3.688,7.125,1.61,8.5,2.05,1.357.434,4.1,1.12,6,1.5,1.925.385,5.3,1.105,7.5,1.6,2.2.495,6.7,1.395,10,2,3.3.605,8.25,1.505,11,2,2.75.495,7.7,1.35,11,1.9,3.3.55,8.475,1.45,11.5,2,3.046.554,8.4,1.424,12,1.95s9.4,1.441,13,2.05c3.6.609,9.288,1.524,12.75,2.05,3.426.521,9.3,1.424,13,2,3.69.574,10.15,1.458,14.25,1.95,4.125.495,11.1,1.395,15.5,2s11.6,1.505,16,2c4.424.498,11.8,1.362,16.5,1.933,30.1,3.657,64.088,6.662,90.2,7.976,9.7.488,18.062,1.115,18.5,1.385,2.933,1.812,125.6,2.194,192.3.598,54.9-1.314,81.718-3.108,120-8.028,4.167-.535,11.5-1.364,16.5-1.864,5-.5,12.778-1.389,17.5-2,4.7-.608,12.077-1.536,16.5-2.075,10-1.218,20.278-2.617,28-3.811,14.5-2.241,21.423-3.299,27-4.125,3.3-.489,8.7-1.412,12-2.052,5.883-1.14,9.2-1.7,22.5-3.798,14.2-2.24,21.589-3.521,35-6.07,5.6-1.064,24.16-4.987,29.5-6.235,2.222-.519,6-1.355,8.5-1.881,13.2-2.777,32.802-7.412,42.5-10.049,3.9-1.061,8.55-2.314,10.5-2.83,10.333-2.735,21.1-6.065,45.9-14.193,15.1-4.949,27.602-8.756,27.85-8.481.249.276-5.55,3.366-12.95,6.901q-18,8.599-37.3,16.202c-9.4,3.703-17.894,7.07-19,7.531-5.503,2.295-38.4,13.357-47.5,15.973-2.454.706-7,2.066-10,2.993s-7.546,2.291-10,3c-2.455.709-7,2.095-10,3.05-3.041.968-9.3,2.705-14,3.887-8.147,2.049-9.9,2.509-18.5,4.865-5.6,1.534-20.395,4.98-24,5.59-1.68.285-5.2.992-8,1.608-2.727.6-7.5,1.509-10.5,2-3,.491-7.773,1.354-10.5,1.9-2.733.547-8.4,1.499-12.5,2.1-4.1.601-10.673,1.576-14.5,2.15-3.9.585-9.879,1.426-13.5,1.9-3.575.468-10.1,1.323-14.5,1.9-4.379.575-12.3,1.48-17.5,2-5.2.52-13.574,1.405-18.5,1.955-41.2,4.599-65.865,6.474-100.5,7.639-10.7.36-20.267,1.061-21.2,1.554-2.837,1.499-116.2,2.22-154.8.985-46.9-1.502-86.597-3.562-116-6.021-6.325-.529-16.9-1.412-23.5-1.962-6.6-.55-16.5-1.495-22-2.1s-14.05-1.508-19-2.006c-17.7-1.783-41.783-4.558-52.5-6.05-4.125-.574-11.1-1.446-15.5-1.937-9.541-1.065-22.7-3.065-39-5.929-2.8-.492-6.98-1.164-9.5-1.528-2.5-.361-6.056-1.05-8-1.55-1.925-.495-6.2-1.417-9.5-2.05-3.3-.633-7.8-1.533-10-2-2.182-.464-6.5-1.373-9.5-2s-7.318-1.605-9.5-2.15c-2.2-.55-5.8-1.44-8-1.978-12.2-2.984-34.133-9.33-45-13.02-26.4-8.965-60.089-23.46-74.3-31.969-3.5-2.096-6.536-3.832-6.7-3.832-.774,0-15-8.954-24-15.106-9.7-6.63-15.5-11.156-15.5-12.094,0-.278,3.45,1.169,7.75,3.25,4.3,2.081,9.464,4.507,11.6,5.45h0ZM124.996,1335.344c1.4,1.101,3.182,1.967,4.05,1.967.9,0,1.948.357,2.5.85.516.461,2.55,1.445,4.45,2.151,3.327,1.237,7.4,2.995,18,7.771,2.475,1.115,9,3.918,14.5,6.228,5.5,2.31,12.385,5.28,15.3,6.6,2.9,1.313,5.866,2.4,6.55,2.4.7,0,1.69.404,2.25.917,2.087,1.915,65.1,23.345,82.9,28.193,2.2.599,5.035,1.495,6.3,1.99,1.246.487,3.4.9,4.7.9s2.652.413,2.95.9c.305.498,2,1.123,3.8,1.4,1.787.275,5.05,1.018,7.25,1.65,2.2.633,5.575,1.555,7.5,2.05,1.892.487,5.2,1.379,7.2,1.942,9.031,2.544,12.5,3.405,24.8,6.152,2.5.559,6.389,1.25,8.75,1.555,2.3.298,4.25,1.009,4.25,1.55,0,2.467-55.4-2.737-76-7.139-2.52-.538-6.7-1.401-9.5-1.961-2.8-.56-6.76-1.484-9-2.1-2.2-.605-5.575-1.505-7.5-2-1.925-.495-5.3-1.395-7.5-2-2.2-.605-5.35-1.468-7-1.918-6.453-1.76-34.6-11.593-45.7-15.965-12.7-5.002-36.715-17.284-45.8-23.423-9.3-6.284-25-20.033-25-21.893,0-1.404,2.4-.812,5,1.233h0Z"/>
      <path d="M1331.496,1124.451c-6,3.307-7.388,11.27-2.801,16.059,4.027,4.204,9.804,4,14.163-.5,3.387-3.497,4.056-7.1,2.041-11-2.634-5.1-8.688-7.159-13.404-4.56h0Z"/>
      <path d="M62.396,1127.017c-5.3,4.306-5.843,10.651-1.3,15.194,9.131,9.131,22.644-3.9,14.31-13.8-2.138-2.54-3.36-3.1-6.76-3.1-2.4,0-5.036.72-6.25,1.706h0Z"/>
      <path d="M981.996,1198.31c0,.533.7,1,1.5,1s1.5-.467,1.5-1-.7-1-1.5-1-1.5.467-1.5,1h0Z"/>
      <path d="M403.514,1200.31c-.346.559-2.118,1-4.018,1s-3.709.485-4.1,1.1c-.489.769.55.919,3.45.5,2.3-.333,5.933-.867,8.15-1.2,2.2-.33,4-1.005,4-1.5,0-1.19-6.74-1.1-7.482.1h0Z"/>
      <path d="M987.996,1200.31c0,.557,1.75,1,3.95,1s4.216.443,4.55,1c.323.538,2.4,1,4.5,1s4.177.462,4.5,1c.331.551,2.15,1,4.05,1s3.45-.449,3.45-1c0-.557-1.75-1-3.95-1s-4.216-.443-4.55-1c-.323-.538-2.4-1-4.5-1s-4.177-.462-4.5-1c-.331-.551-2.15-1-4.05-1s-3.45.449-3.45,1h0Z"/>
      <path d="M387.496,1204.31c-.34.567.7,1,2.4,1s3.26-.433,3.6-1c.34-.567-.7-1-2.4-1s-3.26.433-3.6,1h0Z"/>
      <path d="M383.496,1206.31c-.36.6-.2,1,.4,1s1.24-.4,1.6-1,.2-1-.4-1-1.24.4-1.6,1h0Z"/>
      <path d="M1014.996,1206.31c0,.533.7,1,1.5,1s1.5-.467,1.5-1-.7-1-1.5-1-1.5.467-1.5,1h0Z"/>
      <path d="M467.496,1219.035c-4.808.834-27.2,7.937-34.5,10.944-9.5,3.913-22.51,10.872-27.9,14.923-13.3,9.996-20.034,23.78-17.396,35.609,1.068,4.789,7.296,13.359,12.696,17.471,4.988,3.798,15.2,9.38,22.6,12.355,9.1,3.657,21.282,8.153,24.5,9.042,15.1,4.169,23.933,6.222,34,7.899,2.75.458,7.7,1.353,11,1.989,18.387,3.541,36.5,5.761,82,10.051,44.898,4.233,62.1,4.894,127.5,4.894,57.4,0,70.105-.367,98.5-2.841,6.069-.529,17.5-1.43,25.5-2.01,26-1.886,54.866-5.093,72-7.999,12.5-2.12,26.183-4.693,31.5-5.923,2.2-.509,5.575-1.218,7.5-1.575,9.908-1.838,27.9-7.133,38.5-11.329,19.8-7.839,32.045-16.059,38.316-25.721,3.684-5.677,3.775-16,.202-23-2.47-4.838-12.817-16.075-18.217-19.783-6.4-4.394-24.802-13.675-30.8-15.533-1.96-.607-5.7-1.799-8.5-2.709-10.1-3.282-23.839-6.521-24.496-5.775-.394.448-1.173,3-1.771,5.8-3.158,14.8-6.187,21.069-13.963,28.9-14.555,14.657-27.37,21.256-59.27,30.522-4.1,1.191-9.767,2.881-12.5,3.728-2.8.868-6.54,1.924-8.5,2.4-1.945.472-5.5,1.339-8,1.95-2.5.611-6.5,1.5-9,2-2.52.504-6.7,1.384-9.5,2-2.72.598-7.85,1.533-11.25,2.05-3.401.517-9.35,1.418-13.05,1.976-34.198,5.161-87,7.063-126.2,4.545-31.2-2.004-45.075-3.148-55.5-4.576-4.4-.603-11.15-1.501-15-1.996-3.9-.501-9.214-1.321-12-1.85-2.75-.523-7.7-1.432-11-2.021-13.2-2.357-29.36-6.956-40.4-11.496-3.5-1.439-7.012-2.632-7.75-2.632-.7,0-1.35-.482-1.35-1,0-.571-.6-1-1.4-1-1.78,0-12.5-5.768-16.3-8.771-8.5-6.716-12.282-10.193-15.263-14.029-3.808-4.9-8.981-14.943-9.014-17.5-.013-1-.423-2.578-.923-3.55-.49-.952-1.123-4.85-1.389-8.55-.518-7.2-1.162-8.404-4.211-7.876h0Z"/>
      <path d="M917.996,1244.31c0,.571.45,1,1.05,1s.793-.429.45-1c-.36-.6-.78-1-1.05-1s-.45.4-.45,1h0Z"/>
      <path d="M369.196,1253.55c-15.7,13.968-21.2,22.804-21.2,34.061,0,10.2,4.014,17.301,14,24.766,11.871,8.874,27.3,14.193,55,18.96,2.5.43,5.5,1.086,6.75,1.474,1.2.373,2.25.327,2.25-.1,0-.987-3.1-2.42-10.5-4.857-11.7-3.852-28.52-13.429-36.5-20.784-4.109-3.787-8.596-9.959-11.092-15.259-1.96-4.16-2.316-6.5-2.358-15.5-.049-10.4.016-10.709,3.45-16.35,1.948-3.2,4.281-6.593,5.261-7.65,4.406-4.754.639-3.832-5.061,1.239h0Z"/>
      <path d="M1025.996,1250.21c0,.48.7,1.172,1.5,1.482,2.065.801,7.828,10.218,9.558,15.618.786,2.454,1.409,8,1.369,12.2-.16,17-11.127,29.585-37.227,42.718-5.6,2.818-10.679,5.104-11.4,5.132-.715.028-2.2.747-3.3,1.6-1.854,1.437-1.6,1.505,3.5.935,7.367-.824,13.5-2.224,25.5-5.821,18.8-5.636,32.153-14.22,38.207-24.564,2.253-3.85,2.684-5.75,2.643-11.65-.029-4.1-.717-8.556-1.645-10.65-2.392-5.4-10.227-15.345-15.005-19.047-2.3-1.782-4.426-3.502-4.7-3.804-.281-.309-1.9-1.538-3.7-2.809-3.4-2.4-5.3-2.881-5.3-1.341h0Z"/>
      <path d="M899.996,1264.36c0,.6.429.793,1,.45.6-.36,1-.78,1-1.05s-.4-.45-1-.45c-.571,0-1,.45-1,1.05h0Z"/>
      <path d="M981.996,1330.31c0,.571.45,1,1.05,1s.793-.429.45-1c-.36-.6-.78-1-1.05-1s-.45.4-.45,1h0Z"/>
    </g>
  </g>
</svg>